<?xml version="1.0" encoding="UTF-8"?>
<svg version="1.1" xmlns="http://www.w3.org/2000/svg" width="2107" height="2096">
<path d="M0,0 L28,0 L43,5 L54,11 L64,20 L69,25 L69,27 L71,27 L76,35 L76,37 L95,36 L98,35 L132,35 L172,34 L188,26 L202,20 L219,15 L226,14 L245,14 L263,18 L276,25 L286,33 L291,39 L302,40 L313,40 L314,41 L363,46 L387,49 L396,49 L408,52 L430,52 L442,50 L440,53 L434,55 L441,57 L512,69 L591,84 L663,99 L734,115 L800,131 L867,148 L937,167 L1007,187 L1077,208 L1125,223 L1175,239 L1190,244 L1198,250 L1202,257 L1202,271 L1195,317 L1186,367 L1170,443 L1156,503 L1137,578 L1120,639 L1103,696 L1090,737 L1074,786 L1057,834 L1041,878 L1024,922 L1012,952 L995,993 L980,1028 L963,1066 L945,1105 L929,1138 L918,1161 L902,1193 L892,1212 L880,1235 L868,1257 L852,1286 L836,1314 L821,1340 L804,1368 L790,1391 L778,1410 L764,1432 L735,1476 L722,1495 L706,1518 L694,1535 L681,1553 L667,1572 L651,1593 L642,1605 L628,1623 L617,1637 L604,1653 L596,1663 L587,1674 L576,1687 L567,1698 L554,1713 L542,1727 L532,1738 L525,1746 L514,1758 L507,1766 L493,1781 L482,1793 L473,1802 L466,1810 L400,1876 L392,1883 L382,1893 L374,1900 L357,1916 L347,1925 L337,1934 L326,1943 L314,1954 L303,1963 L288,1976 L277,1985 L260,1999 L246,2010 L231,2022 L214,2035 L193,2051 L175,2064 L157,2077 L155,2078 L142,2078 L136,2074 L118,2061 L99,2047 L82,2034 L69,2024 L51,2010 L35,1997 L21,1986 L7,1974 L-4,1965 L-19,1952 L-33,1940 L-44,1930 L-52,1923 L-62,1914 L-72,1905 L-85,1893 L-100,1879 L-108,1871 L-116,1864 L-176,1804 L-183,1796 L-194,1785 L-201,1777 L-217,1760 L-226,1750 L-235,1740 L-242,1732 L-254,1718 L-263,1708 L-272,1697 L-284,1683 L-293,1672 L-302,1661 L-315,1645 L-328,1628 L-340,1613 L-355,1593 L-367,1577 L-380,1559 L-389,1547 L-392,1540 L-402,1526 L-410,1514 L-429,1486 L-458,1443 L-487,1399 L-501,1377 L-513,1357 L-530,1328 L-545,1302 L-560,1275 L-573,1251 L-588,1223 L-605,1190 L-635,1130 L-648,1102 L-663,1070 L-679,1034 L-700,985 L-720,936 L-739,887 L-756,841 L-771,799 L-792,737 L-812,674 L-829,617 L-847,553 L-864,487 L-878,426 L-890,366 L-900,306 L-905,270 L-905,257 L-899,248 L-893,244 L-841,227 L-772,206 L-699,185 L-634,167 L-559,147 L-485,128 L-410,110 L-338,94 L-328,92 L-324,92 L-324,90 L-320,89 L-319,90 L-289,84 L-279,78 L-267,74 L-253,72 L-226,72 L-166,62 L-103,53 L-71,49 L-66,47 L-64,45 L-62,41 L-57,36 L-56,34 L-54,34 L-53,31 L-47,26 L-42,21 L-37,16 L-34,16 L-34,14 L-32,14 L-32,12 L-26,9 L-11,3 Z M9,53 L4,55 L4,57 L-1,59 L-9,65 L-18,76 L-23,82 L-27,89 L-31,95 L-36,104 L-42,115 L-46,122 L-48,128 L-50,131 L-50,135 L-52,135 L-56,145 L-62,161 L-65,169 L-68,181 L-71,188 L-74,197 L-78,215 L-79,216 L-81,226 L-84,241 L-86,255 L-87,268 L-88,269 L-88,296 L-93,295 L-93,293 L-106,285 L-111,280 L-118,275 L-120,275 L-121,272 L-123,272 L-124,269 L-128,266 L-130,266 L-131,262 L-133,262 L-134,259 L-141,253 L-148,245 L-156,235 L-158,232 L-160,232 L-162,227 L-176,208 L-185,194 L-187,193 L-190,186 L-195,179 L-198,173 L-200,173 L-201,169 L-210,156 L-212,153 L-214,153 L-215,148 L-224,137 L-228,133 L-238,126 L-251,126 L-256,128 L-262,133 L-262,135 L-265,135 L-268,143 L-271,148 L-275,159 L-277,166 L-280,175 L-285,206 L-288,236 L-288,293 L-284,327 L-282,339 L-281,341 L-278,362 L-275,368 L-273,378 L-271,384 L-276,379 L-289,365 L-290,363 L-292,363 L-292,361 L-302,353 L-307,348 L-320,338 L-325,334 L-330,331 L-332,331 L-332,329 L-351,320 L-359,316 L-381,311 L-412,311 L-422,315 L-429,318 L-436,323 L-436,326 L-439,327 L-438,335 L-432,343 L-429,347 L-427,347 L-425,351 L-423,351 L-423,353 L-412,362 L-404,368 L-386,382 L-381,387 L-378,387 L-378,389 L-367,398 L-354,410 L-352,410 L-351,413 L-346,417 L-345,419 L-343,419 L-342,422 L-340,422 L-339,425 L-337,425 L-335,429 L-332,430 L-330,434 L-319,448 L-317,452 L-315,452 L-314,457 L-309,470 L-307,476 L-304,491 L-303,504 L-303,524 L-305,551 L-305,577 L-302,590 L-298,595 L-289,600 L-282,604 L-277,605 L-269,605 L-262,602 L-254,597 L-254,595 L-249,593 L-242,586 L-240,585 L-240,583 L-238,583 L-234,578 L-232,577 L-232,575 L-230,575 L-223,567 L-215,559 L-215,557 L-212,556 L-207,551 L-202,544 L-195,538 L-190,531 L-187,529 L-187,527 L-184,526 L-184,524 L-180,522 L-175,516 L-173,515 L-173,513 L-171,513 L-164,505 L-157,498 L-152,493 L-149,491 L-149,489 L-146,488 L-146,486 L-144,486 L-144,484 L-140,482 L-134,478 L-134,476 L-131,476 L-126,471 L-119,465 L-114,462 L-107,457 L-104,456 L-100,452 L-90,445 L-86,443 L-86,441 L-81,440 L-67,431 L-58,426 L-54,423 L-49,421 L-44,418 L-33,412 L-28,410 L-20,407 L-9,402 L-3,399 L3,397 L3,395 L11,394 L11,392 L18,392 L20,391 L20,389 L29,388 L29,386 L33,387 L36,385 L47,383 L57,381 L58,380 L71,379 L77,378 L79,380 L80,384 L77,385 L75,389 L80,388 L84,387 L85,385 L91,382 L102,380 L103,379 L113,377 L131,375 L138,374 L172,375 L207,379 L227,383 L240,385 L242,386 L251,387 L253,389 L266,392 L272,394 L282,395 L282,397 L295,399 L295,401 L300,403 L310,405 L313,407 L322,408 L322,410 L333,413 L344,419 L356,422 L358,424 L367,427 L375,432 L379,432 L379,434 L384,435 L386,438 L391,438 L391,440 L398,443 L399,445 L405,447 L407,449 L411,449 L413,453 L417,453 L417,456 L429,465 L431,465 L431,467 L434,470 L436,470 L436,472 L438,472 L438,477 L433,478 L433,476 L425,474 L418,474 L414,473 L404,473 L381,475 L372,478 L368,480 L376,483 L380,483 L380,485 L386,487 L390,487 L390,490 L403,494 L409,497 L412,501 L421,502 L430,509 L439,513 L445,518 L465,531 L468,534 L478,539 L485,540 L488,544 L492,545 L493,547 L497,546 L497,543 L500,543 L500,537 L503,537 L503,533 L506,532 L508,529 L508,526 L510,526 L510,524 L514,523 L514,521 L516,521 L516,518 L520,517 L532,508 L540,504 L543,503 L543,501 L550,500 L550,498 L559,497 L562,496 L562,494 L573,493 L577,490 L586,488 L594,486 L594,484 L602,483 L604,480 L608,479 L611,471 L612,466 L608,456 L603,449 L601,449 L600,446 L598,446 L596,442 L594,440 L591,440 L589,436 L584,433 L574,429 L567,426 L557,424 L546,423 L495,422 L493,421 L493,414 L497,412 L506,401 L514,391 L514,389 L516,389 L522,378 L524,375 L524,370 L527,369 L531,359 L535,349 L538,335 L538,316 L536,306 L531,296 L526,290 L514,287 L505,288 L496,291 L487,295 L478,300 L468,304 L460,308 L453,310 L453,312 L446,313 L433,318 L416,324 L398,330 L379,336 L379,334 L383,333 L396,325 L401,322 L402,320 L409,317 L420,308 L428,301 L431,299 L431,297 L433,297 L434,292 L438,291 L444,283 L449,273 L451,264 L451,255 L449,247 L446,241 L444,241 L443,237 L435,232 L426,232 L418,234 L407,238 L398,241 L384,241 L377,238 L371,231 L369,231 L367,226 L364,221 L362,209 L363,191 L365,184 L369,175 L371,167 L371,154 L368,146 L366,142 L360,137 L357,134 L342,128 L325,128 L313,133 L299,145 L295,149 L295,151 L293,151 L287,160 L285,162 L285,166 L282,167 L278,174 L276,179 L270,189 L264,201 L259,211 L257,216 L251,216 L251,208 L248,188 L247,175 L247,141 L249,108 L249,81 L248,73 L243,69 L241,68 L228,68 L225,70 L217,72 L203,79 L197,82 L196,84 L190,86 L190,88 L185,90 L176,97 L176,99 L172,101 L164,108 L164,110 L161,111 L154,120 L152,121 L148,128 L142,135 L141,141 L138,142 L132,153 L128,161 L127,165 L125,166 L120,179 L118,183 L118,188 L116,188 L114,194 L113,196 L113,202 L111,202 L108,219 L107,223 L108,225 L103,222 L100,221 L98,217 L95,213 L93,213 L91,209 L86,202 L84,202 L84,199 L82,199 L80,194 L77,191 L72,181 L69,177 L65,167 L61,159 L59,153 L57,148 L55,148 L54,142 L53,135 L51,135 L50,127 L45,115 L44,108 L42,108 L42,102 L40,95 L36,85 L32,72 L30,67 L28,67 L27,62 L23,57 L21,57 L20,54 L17,53 Z M98,75 L92,76 L93,82 L96,94 L98,100 L102,99 L110,89 L119,78 L121,75 Z M-100,93 L-163,103 L-178,106 L-174,114 L-171,116 L-168,121 L-157,137 L-150,148 L-140,164 L-139,167 L-136,169 L-131,178 L-127,181 L-124,174 L-120,161 L-116,148 L-112,139 L-107,126 L-99,107 L-94,97 L-93,93 Z M398,97 L404,104 L413,115 L419,125 L423,134 L426,148 L426,169 L425,179 L448,182 L463,187 L475,194 L486,204 L495,217 L501,229 L503,234 L522,235 L538,239 L550,244 L560,250 L573,262 L583,276 L589,291 L593,309 L593,336 L590,353 L586,368 L584,373 L585,377 L601,383 L620,393 L634,404 L645,415 L656,431 L662,443 L665,451 L667,461 L667,479 L662,495 L656,506 L646,517 L633,526 L616,534 L600,539 L594,541 L570,549 L569,552 L585,560 L611,575 L625,584 L647,599 L663,611 L676,621 L690,633 L700,642 L702,642 L702,644 L710,651 L718,659 L720,659 L721,662 L723,662 L725,666 L737,678 L738,680 L740,680 L742,684 L751,694 L760,705 L768,715 L781,733 L789,745 L798,759 L812,783 L822,802 L835,832 L842,850 L846,866 L814,845 L788,828 L785,827 L788,837 L795,854 L800,867 L806,886 L810,896 L817,919 L824,944 L830,971 L835,996 L840,1025 L844,1061 L845,1080 L846,1088 L846,1146 L844,1177 L838,1219 L838,1224 L841,1221 L846,1209 L858,1187 L875,1154 L875,1152 L878,1151 L899,1109 L902,1100 L919,1065 L919,1063 L921,1063 L925,1052 L932,1037 L932,1035 L934,1035 L937,1024 L939,1024 L942,1015 L953,990 L953,988 L955,988 L958,978 L968,955 L968,953 L970,953 L973,943 L978,931 L978,929 L980,929 L983,919 L987,909 L987,907 L989,907 L989,902 L991,902 L991,897 L993,897 L997,884 L1000,877 L1000,874 L1002,874 L1005,864 L1005,861 L1007,861 L1010,851 L1010,848 L1012,848 L1013,840 L1015,840 L1016,832 L1018,832 L1020,821 L1022,821 L1024,810 L1026,810 L1028,799 L1030,799 L1034,785 L1034,782 L1036,782 L1041,765 L1043,756 L1045,756 L1055,726 L1058,714 L1062,702 L1064,698 L1067,686 L1069,679 L1072,672 L1074,663 L1076,656 L1080,643 L1082,636 L1090,608 L1092,601 L1096,586 L1098,579 L1101,570 L1104,556 L1118,499 L1132,435 L1144,372 L1152,324 L1158,283 L1158,279 L1122,267 L1083,255 L1032,240 L977,224 L941,214 L896,202 L828,184 L741,162 L669,145 L630,136 L581,126 L547,119 L522,114 L466,104 L445,100 L437,99 L405,97 Z M-329,135 L-376,145 L-428,157 L-441,160 L-442,164 L-449,162 L-530,182 L-602,201 L-670,220 L-738,240 L-803,260 L-860,278 L-861,279 L-861,287 L-858,300 L-856,317 L-854,317 L-853,328 L-852,338 L-850,344 L-848,359 L-846,365 L-842,385 L-841,394 L-839,394 L-838,404 L-836,417 L-834,422 L-831,436 L-830,444 L-828,449 L-827,458 L-825,458 L-824,470 L-821,479 L-818,496 L-816,496 L-815,504 L-807,536 L-804,551 L-802,551 L-802,559 L-800,566 L-798,566 L-798,574 L-793,592 L-791,592 L-791,599 L-789,599 L-788,610 L-786,610 L-786,617 L-784,617 L-784,624 L-782,624 L-782,631 L-780,631 L-780,638 L-779,641 L-777,641 L-777,648 L-775,648 L-775,655 L-774,658 L-772,658 L-772,665 L-771,668 L-769,668 L-768,678 L-766,678 L-764,691 L-763,694 L-761,694 L-759,707 L-758,710 L-756,710 L-754,719 L-749,738 L-734,782 L-732,782 L-730,794 L-726,805 L-724,805 L-723,814 L-721,819 L-719,819 L-718,828 L-717,830 L-715,830 L-715,836 L-713,841 L-711,841 L-711,847 L-698,881 L-696,881 L-696,886 L-694,886 L-693,894 L-691,894 L-691,899 L-689,899 L-687,909 L-685,909 L-684,914 L-682,922 L-680,922 L-680,927 L-678,927 L-675,937 L-673,944 L-671,944 L-669,954 L-667,954 L-666,961 L-664,961 L-664,966 L-662,966 L-661,973 L-659,973 L-659,978 L-657,978 L-656,985 L-654,985 L-651,994 L-648,1001 L-647,1006 L-645,1006 L-643,1015 L-641,1015 L-638,1024 L-622,1059 L-618,1068 L-616,1075 L-614,1075 L-612,1081 L-609,1090 L-607,1090 L-605,1096 L-583,1141 L-563,1181 L-552,1197 L-546,1211 L-538,1226 L-534,1235 L-528,1247 L-525,1254 L-519,1265 L-513,1275 L-507,1286 L-501,1296 L-495,1307 L-488,1319 L-478,1336 L-472,1345 L-467,1354 L-448,1382 L-439,1396 L-413,1435 L-403,1450 L-393,1466 L-376,1491 L-367,1505 L-364,1508 L-365,1500 L-367,1493 L-371,1479 L-376,1452 L-378,1431 L-378,1390 L-375,1368 L-370,1345 L-362,1321 L-356,1308 L-350,1294 L-345,1286 L-344,1280 L-363,1270 L-374,1263 L-380,1259 L-392,1249 L-398,1244 L-400,1241 L-402,1241 L-404,1237 L-412,1227 L-420,1214 L-421,1211 L-423,1211 L-424,1205 L-428,1195 L-431,1184 L-433,1166 L-433,1157 L-430,1136 L-422,1114 L-415,1102 L-408,1092 L-408,1090 L-406,1090 L-399,1081 L-393,1076 L-393,1074 L-389,1072 L-388,1069 L-383,1067 L-375,1060 L-370,1054 L-368,1053 L-368,1051 L-366,1051 L-362,1046 L-362,1044 L-357,1042 L-356,1039 L-351,1034 L-341,1021 L-337,1017 L-332,1009 L-332,1007 L-329,1006 L-324,997 L-319,989 L-314,980 L-310,967 L-311,962 L-319,953 L-327,946 L-332,940 L-337,935 L-345,924 L-356,925 L-365,927 L-375,935 L-389,946 L-397,952 L-401,951 L-411,937 L-420,922 L-426,910 L-432,897 L-440,873 L-444,854 L-446,832 L-446,820 L-445,800 L-439,774 L-436,765 L-430,749 L-422,734 L-413,721 L-410,716 L-410,714 L-408,714 L-406,709 L-403,708 L-396,700 L-388,692 L-386,691 L-386,689 L-383,688 L-383,686 L-378,684 L-378,682 L-373,680 L-368,677 L-368,675 L-363,673 L-343,660 L-323,651 L-317,648 L-318,645 L-328,639 L-329,637 L-334,634 L-340,629 L-348,618 L-352,610 L-354,610 L-355,604 L-360,585 L-360,550 L-359,540 L-359,494 L-362,484 L-367,474 L-372,468 L-374,468 L-376,464 L-381,458 L-386,453 L-390,451 L-391,448 L-398,443 L-403,438 L-415,427 L-425,419 L-433,413 L-434,411 L-439,408 L-452,398 L-453,396 L-455,396 L-455,394 L-466,386 L-473,378 L-482,367 L-488,357 L-492,347 L-494,336 L-494,322 L-491,311 L-487,302 L-482,294 L-482,292 L-480,292 L-474,285 L-472,284 L-472,282 L-469,282 L-464,277 L-452,270 L-443,267 L-443,265 L-436,264 L-418,260 L-407,259 L-377,259 L-363,262 L-354,263 L-349,265 L-344,265 L-343,259 L-341,210 L-340,207 L-338,188 L-333,163 L-329,148 L-325,135 Z M118,406 L101,409 L81,416 L73,420 L55,430 L55,432 L51,433 L38,442 L37,445 L33,446 L28,451 L21,457 L14,463 L11,468 L9,469 L14,461 L14,459 L16,459 L17,453 L19,453 L19,449 L21,449 L27,432 L29,424 L30,416 L24,417 L6,428 L-5,434 L-8,436 L-8,438 L-13,439 L-20,444 L-28,448 L-38,455 L-47,460 L-61,469 L-69,474 L-69,476 L-72,476 L-72,478 L-77,479 L-80,482 L-87,486 L-87,488 L-91,489 L-107,500 L-111,503 L-111,505 L-115,506 L-122,511 L-122,513 L-126,514 L-133,520 L-133,522 L-137,523 L-140,526 L-140,528 L-144,529 L-150,536 L-153,537 L-160,545 L-167,552 L-167,555 L-171,557 L-174,561 L-174,564 L-176,564 L-176,567 L-178,567 L-184,578 L-190,593 L-195,609 L-203,625 L-205,628 L-205,631 L-207,631 L-207,634 L-211,636 L-214,641 L-217,643 L-217,645 L-221,647 L-229,652 L-230,655 L-219,654 L-200,648 L-190,644 L-176,639 L-166,634 L-154,629 L-152,627 L-148,626 L-148,624 L-142,622 L-149,630 L-156,637 L-170,647 L-187,656 L-195,659 L-195,662 L-169,662 L-149,660 L-130,657 L-102,650 L-87,645 L-75,640 L-58,632 L-48,626 L-45,625 L-45,623 L-41,622 L-32,616 L-23,609 L-13,601 L-5,595 L4,589 L15,583 L24,578 L24,576 L30,574 L41,569 L60,560 L81,552 L96,547 L120,541 L132,538 L153,534 L181,530 L181,532 L177,533 L167,539 L167,541 L163,542 L163,544 L160,544 L160,546 L156,548 L151,552 L143,562 L143,565 L151,564 L165,560 L189,556 L210,554 L228,553 L245,553 L273,555 L294,558 L319,563 L335,567 L365,577 L377,582 L390,588 L406,596 L412,600 L416,599 L413,594 L404,585 L396,578 L384,567 L373,559 L371,559 L371,557 L355,546 L347,540 L336,534 L331,531 L329,531 L329,529 L357,530 L380,533 L394,536 L399,536 L398,532 L393,529 L388,524 L385,523 L383,520 L379,518 L378,516 L370,512 L369,510 L361,506 L358,505 L358,503 L353,502 L353,500 L344,497 L344,495 L337,492 L331,490 L331,488 L319,483 L313,482 L313,480 L303,477 L300,477 L300,475 L286,471 L277,468 L260,463 L254,462 L246,462 L246,460 L274,455 L294,453 L325,453 L350,456 L361,458 L365,458 L364,455 L355,450 L347,447 L339,443 L327,439 L319,436 L310,433 L300,429 L282,424 L255,418 L237,414 L220,411 L195,408 L174,406 Z M421,557 L423,561 L425,561 L426,565 L433,575 L443,591 L450,606 L456,621 L461,639 L463,652 L447,646 L440,643 L423,637 L394,627 L379,622 L367,619 L359,616 L318,606 L293,601 L273,598 L253,596 L213,596 L202,598 L203,602 L213,629 L221,658 L225,678 L228,704 L228,748 L225,775 L224,776 L221,792 L212,822 L207,833 L202,843 L202,846 L204,846 L204,844 L209,842 L220,835 L232,826 L243,816 L251,809 L255,804 L260,799 L267,791 L267,789 L271,789 L270,792 L267,823 L262,855 L260,865 L252,899 L243,931 L233,961 L225,983 L221,993 L212,1013 L204,1031 L202,1036 L209,1030 L209,1028 L213,1026 L227,1011 L237,1000 L248,986 L259,972 L265,964 L275,950 L290,926 L297,915 L305,899 L313,883 L322,863 L328,847 L331,846 L331,853 L333,866 L334,868 L338,900 L339,904 L342,953 L342,1046 L339,1087 L336,1115 L335,1118 L333,1137 L329,1165 L325,1185 L320,1211 L313,1239 L309,1257 L305,1271 L297,1298 L287,1328 L280,1348 L268,1380 L262,1395 L255,1410 L250,1422 L244,1434 L235,1454 L225,1473 L216,1490 L209,1502 L209,1504 L207,1504 L207,1490 L205,1463 L204,1462 L202,1447 L196,1422 L194,1415 L192,1415 L188,1435 L184,1449 L180,1464 L174,1483 L171,1493 L164,1513 L154,1538 L145,1559 L134,1583 L124,1602 L115,1617 L111,1625 L95,1650 L87,1661 L79,1672 L74,1678 L74,1681 L71,1682 L60,1696 L46,1711 L27,1730 L28,1732 L51,1726 L65,1722 L86,1716 L93,1714 L111,1708 L126,1703 L138,1699 L148,1695 L173,1686 L185,1681 L197,1676 L210,1671 L223,1665 L241,1657 L255,1650 L272,1642 L282,1636 L298,1628 L310,1621 L321,1615 L348,1599 L352,1597 L352,1595 L357,1593 L372,1583 L387,1573 L392,1570 L392,1568 L397,1566 L406,1560 L406,1558 L411,1556 L423,1546 L428,1543 L428,1541 L433,1539 L442,1531 L444,1530 L444,1528 L448,1526 L459,1517 L464,1512 L472,1506 L477,1501 L482,1496 L483,1493 L487,1491 L502,1476 L509,1468 L520,1456 L529,1445 L536,1436 L536,1434 L539,1434 L537,1444 L534,1453 L530,1468 L525,1483 L520,1495 L511,1515 L503,1531 L494,1546 L484,1561 L478,1569 L478,1572 L476,1572 L476,1575 L474,1575 L464,1588 L462,1591 L467,1589 L477,1583 L488,1576 L503,1566 L518,1555 L530,1546 L544,1534 L554,1526 L559,1521 L565,1516 L565,1514 L567,1514 L574,1506 L579,1500 L584,1495 L592,1486 L592,1484 L594,1484 L601,1475 L611,1462 L619,1450 L631,1431 L639,1417 L650,1393 L656,1380 L664,1357 L669,1341 L675,1317 L681,1281 L683,1266 L684,1248 L684,1185 L683,1168 L681,1152 L678,1129 L675,1110 L669,1083 L664,1063 L656,1034 L646,1005 L641,991 L636,979 L627,957 L620,942 L623,943 L632,954 L640,964 L642,964 L644,968 L656,984 L665,997 L674,1011 L683,1026 L689,1037 L700,1058 L708,1078 L710,1079 L710,1067 L707,1054 L705,1039 L702,1027 L698,1011 L695,998 L689,978 L684,961 L673,929 L667,914 L663,904 L656,886 L653,880 L658,885 L668,897 L669,899 L671,899 L673,904 L683,917 L693,933 L700,943 L712,963 L720,977 L726,989 L736,1008 L746,1029 L753,1044 L760,1060 L771,1088 L782,1118 L788,1136 L792,1148 L794,1155 L798,1170 L800,1176 L801,1176 L801,1127 L799,1082 L794,1034 L793,1033 L789,1007 L784,983 L779,961 L772,937 L766,919 L762,906 L752,880 L742,857 L728,828 L725,822 L723,822 L722,817 L710,796 L690,766 L682,755 L673,744 L664,734 L658,726 L673,729 L692,735 L703,740 L714,745 L731,754 L737,758 L740,759 L738,755 L726,739 L717,728 L715,725 L713,725 L711,721 L699,708 L689,698 L684,693 L673,682 L662,673 L648,661 L645,661 L645,659 L634,651 L616,638 L602,629 L588,621 L573,612 L557,604 L524,589 L515,585 L508,582 L496,578 L486,574 L473,570 L449,563 L434,560 Z M39,599 L23,605 L11,611 L12,616 L12,631 L8,640 L2,648 L-10,654 L-15,655 L-22,655 L-33,652 L-38,649 L-39,647 L-42,647 L-42,649 L-48,651 L-56,655 L-56,657 L-52,657 L-52,659 L-36,660 L-14,660 L-3,659 L6,655 L15,650 L25,642 L31,634 L37,625 L40,619 L40,615 L42,615 L43,610 L43,601 L45,601 L45,599 Z M141,602 L141,605 L139,605 L139,610 L136,611 L133,620 L127,630 L125,631 L125,634 L122,635 L122,637 L120,637 L117,642 L115,643 L115,646 L113,646 L112,649 L108,653 L108,655 L104,656 L99,662 L93,666 L81,675 L81,677 L76,678 L76,681 L71,681 L68,684 L65,685 L63,688 L57,690 L50,693 L50,687 L54,686 L54,680 L57,679 L61,672 L65,665 L68,656 L68,653 L65,653 L60,659 L59,662 L51,667 L45,672 L45,674 L40,675 L40,677 L35,678 L31,680 L30,682 L27,683 L27,685 L23,685 L22,687 L15,689 L8,692 L-1,695 L-4,696 L-4,698 L-14,699 L-15,702 L-23,702 L-36,704 L-36,706 L-50,706 L-56,707 L-90,707 L-90,709 L-84,711 L-84,713 L-76,718 L-73,718 L-72,721 L-67,724 L-61,728 L-59,731 L-52,735 L-49,739 L-47,739 L-45,743 L-37,750 L-30,758 L-26,763 L-24,763 L-24,765 L-22,765 L-20,769 L-14,778 L-11,781 L-8,786 L-6,786 L-4,792 L1,801 L2,805 L4,805 L5,809 L8,816 L12,826 L13,832 L15,832 L16,838 L20,857 L22,867 L23,908 L20,908 L19,900 L14,890 L11,883 L2,868 L-5,859 L-9,858 L-11,864 L-15,873 L-15,877 L-18,878 L-20,883 L-29,896 L-34,904 L-36,905 L-36,907 L-38,907 L-46,917 L-58,926 L-67,932 L-72,934 L-77,937 L-90,940 L-90,942 L-97,942 L-102,943 L-119,943 L-138,941 L-152,938 L-163,933 L-175,929 L-176,927 L-187,923 L-197,918 L-208,914 L-217,911 L-225,908 L-235,906 L-251,903 L-252,902 L-265,900 L-290,899 L-294,900 L-292,904 L-291,906 L-289,906 L-287,910 L-279,917 L-275,919 L-274,923 L-268,928 L-262,936 L-257,949 L-255,953 L-255,973 L-258,987 L-261,994 L-263,1000 L-270,1013 L-275,1021 L-275,1025 L-278,1026 L-281,1031 L-281,1034 L-283,1034 L-286,1038 L-286,1041 L-289,1042 L-289,1045 L-291,1045 L-302,1059 L-304,1061 L-304,1064 L-307,1065 L-315,1075 L-315,1077 L-319,1079 L-323,1083 L-323,1085 L-326,1086 L-326,1088 L-328,1088 L-331,1091 L-331,1093 L-334,1094 L-334,1096 L-338,1098 L-339,1101 L-342,1102 L-342,1104 L-346,1106 L-355,1113 L-357,1118 L-361,1120 L-367,1128 L-373,1140 L-375,1147 L-377,1156 L-377,1168 L-375,1180 L-372,1189 L-369,1190 L-367,1195 L-365,1195 L-363,1200 L-360,1201 L-360,1204 L-358,1204 L-357,1207 L-346,1216 L-341,1218 L-341,1220 L-328,1227 L-316,1234 L-309,1236 L-291,1242 L-281,1245 L-276,1244 L-278,1236 L-280,1222 L-280,1195 L-279,1182 L-278,1181 L-275,1160 L-272,1154 L-267,1137 L-265,1135 L-262,1128 L-254,1112 L-254,1110 L-252,1110 L-245,1100 L-242,1095 L-233,1085 L-227,1078 L-227,1076 L-223,1074 L-222,1071 L-220,1071 L-216,1066 L-211,1062 L-211,1060 L-208,1060 L-210,1065 L-218,1075 L-218,1077 L-221,1078 L-222,1082 L-224,1082 L-229,1091 L-235,1102 L-235,1105 L-237,1105 L-241,1114 L-244,1122 L-247,1134 L-248,1135 L-250,1146 L-252,1155 L-253,1171 L-252,1194 L-250,1200 L-247,1212 L-245,1217 L-243,1217 L-240,1228 L-237,1230 L-236,1233 L-234,1234 L-232,1239 L-230,1239 L-229,1242 L-225,1244 L-224,1248 L-211,1258 L-206,1259 L-206,1261 L-197,1266 L-190,1267 L-184,1271 L-173,1273 L-170,1275 L-161,1277 L-144,1278 L-143,1279 L-91,1279 L-84,1277 L-65,1274 L-65,1272 L-59,1273 L-58,1271 L-47,1269 L-43,1266 L-34,1264 L-28,1260 L-21,1259 L-20,1256 L-15,1255 L-14,1252 L-9,1251 L-2,1248 L-1,1245 L4,1244 L4,1241 L9,1240 L10,1237 L14,1236 L17,1235 L23,1228 L27,1226 L31,1222 L33,1221 L33,1218 L35,1218 L42,1209 L44,1208 L47,1203 L54,1194 L54,1189 L57,1189 L68,1165 L73,1158 L76,1141 L77,1140 L76,1102 L73,1083 L71,1074 L67,1067 L65,1060 L61,1052 L59,1045 L57,1045 L57,1040 L63,1040 L63,1043 L70,1048 L71,1050 L74,1050 L76,1054 L82,1061 L84,1061 L85,1064 L87,1064 L88,1069 L91,1070 L93,1076 L96,1083 L98,1083 L98,1090 L101,1091 L102,1097 L106,1096 L109,1091 L113,1087 L121,1076 L121,1073 L124,1073 L127,1067 L127,1063 L130,1063 L132,1056 L134,1055 L135,1051 L139,1047 L139,1043 L141,1043 L147,1033 L148,1027 L151,1026 L151,1020 L153,1020 L155,1015 L158,1010 L159,1004 L161,1003 L161,997 L165,996 L167,989 L167,985 L169,985 L170,976 L172,976 L175,966 L178,963 L179,956 L181,953 L183,945 L186,939 L186,932 L189,931 L189,923 L191,923 L192,916 L197,904 L197,898 L194,900 L194,904 L190,905 L181,916 L176,921 L171,926 L170,931 L165,932 L165,934 L162,935 L157,940 L156,943 L151,944 L148,947 L142,952 L142,954 L138,954 L138,956 L134,958 L128,961 L128,963 L124,964 L124,966 L119,967 L118,969 L112,970 L112,974 L108,973 L107,967 L111,966 L111,963 L114,962 L115,957 L120,954 L122,948 L125,945 L127,940 L129,940 L129,935 L132,935 L135,929 L136,926 L138,926 L141,919 L141,916 L143,916 L148,906 L148,902 L151,902 L152,895 L154,895 L159,885 L161,878 L164,873 L165,866 L167,865 L167,859 L170,859 L172,852 L175,845 L175,837 L178,837 L180,824 L181,823 L182,814 L184,811 L184,805 L186,805 L186,792 L188,792 L190,770 L191,765 L191,725 L190,712 L188,708 L187,694 L185,685 L182,680 L179,669 L176,663 L175,656 L173,656 L173,650 L170,649 L169,644 L166,637 L164,637 L164,632 L162,632 L161,627 L156,618 L153,615 L151,615 L151,611 L148,610 L144,602 Z M-29,638 L-31,640 L-31,646 L-29,648 L-24,648 L-22,646 L-22,640 L-24,638 Z M-243,682 L-255,684 L-272,688 L-286,692 L-298,697 L-307,701 L-327,712 L-340,722 L-350,731 L-356,737 L-356,739 L-358,739 L-363,745 L-363,748 L-365,748 L-377,766 L-385,779 L-390,792 L-390,796 L-392,796 L-394,805 L-396,810 L-398,825 L-398,850 L-393,872 L-392,876 L-388,874 L-380,867 L-367,856 L-357,849 L-344,841 L-332,835 L-317,828 L-302,824 L-294,821 L-273,817 L-259,816 L-216,816 L-201,817 L-180,820 L-171,820 L-171,822 L-157,824 L-145,827 L-123,830 L-121,831 L-111,832 L-50,832 L-45,831 L-25,829 L-27,824 L-34,815 L-43,803 L-49,796 L-50,793 L-55,789 L-60,782 L-65,777 L-73,769 L-78,764 L-84,757 L-91,751 L-93,751 L-95,747 L-102,741 L-104,741 L-104,739 L-115,731 L-128,721 L-139,714 L-144,712 L-144,710 L-161,702 L-165,699 L-184,691 L-194,688 L-202,685 L-211,683 L-220,682 Z M-243,839 L-274,842 L-286,844 L-295,847 L-305,850 L-317,855 L-332,864 L-337,869 L-314,867 L-308,866 L-269,866 L-243,869 L-234,871 L-207,877 L-197,880 L-171,888 L-163,891 L-146,896 L-130,899 L-104,899 L-87,895 L-77,891 L-77,889 L-72,887 L-67,884 L-63,881 L-63,879 L-59,877 L-50,868 L-43,859 L-42,855 L-104,855 L-118,854 L-131,852 L-151,849 L-163,846 L-180,843 L-198,841 L-205,840 L-224,839 Z M779,1267 L772,1293 L760,1329 L750,1357 L740,1382 L733,1396 L726,1411 L727,1413 L736,1399 L747,1382 L755,1369 L761,1360 L766,1351 L772,1342 L772,1338 L776,1336 L782,1325 L785,1316 L797,1295 L801,1290 L803,1286 L797,1279 L786,1270 L782,1267 Z M-273,1275 L-287,1294 L-295,1307 L-303,1323 L-309,1337 L-315,1353 L-319,1369 L-322,1384 L-325,1413 L-325,1436 L-323,1462 L-319,1481 L-317,1479 L-313,1467 L-304,1452 L-300,1449 L-297,1448 L-296,1457 L-293,1469 L-288,1483 L-280,1503 L-269,1526 L-262,1538 L-256,1549 L-245,1566 L-244,1568 L-242,1568 L-240,1573 L-230,1586 L-228,1586 L-226,1591 L-219,1599 L-212,1607 L-205,1615 L-203,1615 L-202,1618 L-200,1618 L-200,1620 L-198,1620 L-196,1624 L-193,1625 L-192,1628 L-190,1628 L-190,1630 L-182,1637 L-169,1648 L-159,1656 L-140,1670 L-130,1677 L-119,1683 L-116,1686 L-104,1692 L-82,1704 L-61,1714 L-51,1718 L-23,1729 L-14,1731 L-20,1724 L-35,1709 L-42,1701 L-50,1692 L-61,1678 L-71,1665 L-78,1655 L-93,1632 L-110,1603 L-118,1588 L-129,1565 L-145,1528 L-151,1511 L-160,1486 L-172,1446 L-179,1415 L-181,1417 L-186,1434 L-188,1446 L-189,1447 L-192,1469 L-193,1483 L-193,1504 L-196,1503 L-202,1495 L-206,1488 L-216,1472 L-224,1457 L-232,1440 L-244,1411 L-250,1392 L-257,1366 L-263,1338 L-266,1318 L-267,1315 L-271,1275 Z M-316,1558 L-321,1566 L-322,1572 L-309,1589 L-295,1607 L-282,1623 L-271,1637 L-259,1651 L-250,1662 L-239,1675 L-227,1689 L-216,1702 L-207,1713 L-200,1720 L-193,1728 L-182,1740 L-171,1752 L-163,1761 L-158,1766 L-138,1786 L-131,1794 L-109,1816 L-104,1819 L-88,1835 L-81,1843 L-78,1846 L-73,1849 L-64,1859 L-55,1866 L-53,1869 L-51,1869 L-49,1873 L-42,1880 L-34,1887 L-22,1898 L-11,1907 L2,1919 L7,1924 L12,1929 L17,1931 L20,1934 L23,1935 L26,1939 L29,1940 L32,1944 L35,1945 L40,1950 L43,1953 L46,1954 L51,1959 L59,1966 L62,1967 L64,1970 L67,1971 L72,1976 L78,1981 L81,1982 L86,1987 L90,1989 L95,1994 L98,1995 L98,1997 L103,1999 L108,2004 L111,2007 L113,2007 L113,2009 L122,2015 L125,2016 L126,2019 L134,2026 L139,2030 L155,2030 L161,2026 L165,2020 L183,2006 L202,1992 L216,1981 L230,1970 L247,1956 L261,1945 L276,1932 L278,1930 L283,1928 L290,1920 L301,1911 L314,1899 L322,1892 L334,1881 L342,1874 L345,1871 L345,1869 L349,1867 L356,1860 L364,1853 L381,1837 L400,1818 L408,1811 L432,1787 L439,1779 L453,1765 L458,1760 L467,1750 L483,1733 L492,1723 L501,1713 L512,1700 L521,1689 L531,1678 L540,1667 L552,1653 L561,1642 L574,1626 L588,1609 L598,1596 L612,1578 L619,1569 L618,1567 L604,1581 L604,1583 L600,1585 L584,1601 L579,1605 L578,1606 L576,1605 L550,1620 L526,1634 L511,1643 L494,1648 L483,1652 L466,1657 L430,1669 L416,1673 L372,1689 L325,1706 L312,1711 L319,1703 L330,1692 L337,1684 L347,1674 L354,1666 L365,1655 L372,1647 L381,1638 L378,1638 L365,1648 L340,1664 L318,1678 L295,1693 L249,1712 L203,1731 L173,1744 L146,1756 L102,1767 L84,1772 L-1,1793 L-9,1793 L-19,1789 L-28,1786 L-43,1781 L-54,1776 L-67,1770 L-70,1768 L-77,1766 L-89,1760 L-103,1753 L-127,1739 L-137,1733 L-152,1723 L-164,1715 L-171,1710 L-173,1710 L-174,1707 L-181,1703 L-188,1697 L-200,1688 L-205,1683 L-216,1674 L-221,1668 L-235,1657 L-241,1650 L-246,1645 L-254,1637 L-259,1631 L-264,1626 L-265,1624 L-267,1624 L-269,1620 L-278,1610 L-288,1597 L-298,1584 L-303,1578 L-311,1562 L-314,1558 Z " fill="#000000" transform="translate(905,18)"/>
<path d="M0,0 L4,1 L-2,19 L-5,34 L-9,53 L-11,72 L-12,75 L-14,124 L-15,130 L-24,129 L-25,128 L-38,126 L-48,124 L-78,124 L-94,126 L-110,130 L-114,130 L-114,132 L-124,136 L-136,143 L-140,147 L-143,147 L-143,149 L-150,155 L-151,157 L-153,157 L-155,162 L-161,173 L-164,183 L-165,187 L-165,201 L-162,214 L-158,224 L-152,233 L-144,243 L-139,248 L-135,253 L-126,259 L-126,261 L-124,261 L-119,266 L-108,275 L-105,276 L-101,281 L-95,285 L-82,296 L-71,305 L-66,310 L-61,314 L-61,316 L-57,318 L-52,323 L-45,331 L-45,333 L-43,333 L-37,341 L-33,349 L-30,359 L-30,405 L-31,415 L-31,450 L-26,469 L-25,475 L-23,475 L-17,486 L-9,496 L-3,501 L0,502 L4,506 L12,511 L12,513 L-16,526 L-31,536 L-37,540 L-39,540 L-39,542 L-47,547 L-49,547 L-49,549 L-54,551 L-55,554 L-57,554 L-57,556 L-65,563 L-73,571 L-75,574 L-77,574 L-79,579 L-81,579 L-83,585 L-91,596 L-98,608 L-103,620 L-107,630 L-110,639 L-116,665 L-117,685 L-117,697 L-115,719 L-110,741 L-102,765 L-97,775 L-89,791 L-80,805 L-71,817 L-66,816 L-53,805 L-44,798 L-36,792 L-22,789 L-16,789 L-5,804 L0,809 L8,817 L13,822 L19,828 L18,836 L14,847 L6,861 L1,868 L-1,872 L-3,872 L-5,878 L-10,885 L-15,890 L-23,900 L-27,904 L-28,907 L-33,909 L-34,913 L-37,916 L-39,916 L-39,918 L-45,923 L-50,928 L-57,934 L-59,934 L-61,938 L-64,939 L-64,941 L-70,946 L-74,952 L-77,955 L-79,955 L-81,960 L-87,968 L-95,984 L-101,1001 L-104,1022 L-104,1031 L-102,1049 L-97,1065 L-94,1073 L-94,1076 L-92,1076 L-87,1086 L-79,1097 L-73,1104 L-73,1106 L-70,1107 L-65,1113 L-56,1120 L-49,1126 L-42,1130 L-27,1139 L-15,1145 L-16,1151 L-22,1161 L-30,1180 L-34,1190 L-41,1210 L-46,1233 L-49,1255 L-49,1296 L-47,1317 L-42,1344 L-38,1358 L-36,1365 L-35,1373 L-38,1370 L-47,1356 L-73,1317 L-83,1301 L-91,1290 L-110,1261 L-119,1247 L-142,1213 L-147,1204 L-154,1193 L-159,1184 L-166,1172 L-174,1158 L-182,1144 L-188,1134 L-194,1123 L-198,1116 L-201,1109 L-208,1094 L-216,1077 L-222,1065 L-227,1056 L-236,1042 L-268,978 L-278,957 L-278,955 L-280,955 L-284,944 L-285,940 L-287,940 L-291,929 L-310,887 L-312,880 L-314,880 L-316,871 L-318,871 L-321,861 L-325,852 L-325,850 L-327,850 L-328,843 L-330,843 L-330,838 L-332,838 L-333,831 L-335,831 L-335,826 L-337,826 L-338,819 L-340,819 L-342,809 L-344,809 L-349,794 L-349,792 L-351,792 L-351,787 L-353,787 L-356,777 L-356,774 L-358,774 L-360,764 L-362,764 L-362,759 L-364,759 L-365,751 L-367,751 L-367,746 L-369,746 L-382,712 L-382,706 L-384,706 L-386,701 L-386,695 L-388,695 L-390,690 L-390,684 L-392,684 L-395,676 L-395,670 L-397,670 L-401,659 L-403,647 L-405,647 L-421,600 L-426,581 L-427,575 L-429,575 L-432,562 L-432,559 L-434,559 L-437,546 L-437,543 L-439,543 L-440,533 L-442,533 L-443,530 L-443,523 L-445,523 L-446,520 L-446,513 L-448,513 L-448,506 L-450,506 L-451,503 L-451,496 L-453,496 L-453,489 L-455,489 L-455,482 L-457,482 L-457,475 L-459,475 L-460,464 L-462,464 L-462,457 L-464,457 L-469,439 L-469,431 L-471,431 L-473,424 L-473,416 L-475,416 L-481,389 L-487,365 L-487,361 L-489,361 L-494,336 L-495,335 L-496,323 L-498,323 L-500,310 L-501,309 L-504,292 L-506,283 L-508,278 L-510,264 L-510,259 L-512,259 L-515,240 L-518,225 L-520,219 L-522,204 L-523,203 L-525,188 L-525,182 L-527,182 L-529,165 L-532,152 L-532,144 L-525,141 L-468,123 L-406,104 L-341,85 L-280,68 L-205,48 L-129,29 L-119,27 L-113,29 L-112,25 L-56,12 L-6,1 Z " fill="#1F99F8" transform="translate(576,153)"/>
<path d="M0,0 L19,1 L39,2 L62,6 L96,12 L135,19 L159,24 L207,34 L240,41 L322,60 L407,81 L495,104 L535,115 L560,122 L582,128 L628,141 L651,148 L691,160 L730,172 L760,182 L758,200 L749,258 L738,318 L725,380 L711,439 L704,466 L703,473 L700,482 L698,489 L693,510 L690,518 L684,539 L682,546 L678,559 L676,566 L674,575 L671,582 L669,589 L665,604 L661,614 L658,623 L655,635 L647,659 L645,659 L643,668 L638,685 L636,685 L634,694 L632,702 L630,702 L628,713 L626,713 L624,724 L622,724 L620,735 L618,735 L617,743 L615,743 L614,751 L612,751 L611,756 L609,764 L607,764 L606,769 L604,777 L602,777 L601,782 L596,795 L595,800 L593,800 L593,805 L591,805 L591,810 L589,810 L586,820 L583,827 L582,832 L580,832 L577,841 L573,851 L572,856 L570,856 L567,865 L558,886 L557,891 L555,891 L552,900 L542,922 L541,927 L539,927 L536,938 L534,938 L532,944 L525,959 L523,966 L521,966 L519,972 L502,1007 L499,1016 L480,1054 L477,1055 L475,1061 L457,1096 L445,1118 L442,1126 L440,1127 L441,1116 L444,1093 L446,1080 L448,1049 L448,991 L447,983 L446,964 L442,928 L436,892 L428,856 L424,839 L417,816 L412,799 L405,780 L402,770 L396,755 L390,740 L387,730 L395,734 L410,744 L443,766 L448,769 L443,751 L435,730 L426,709 L417,692 L411,681 L399,660 L391,648 L383,636 L369,617 L360,606 L349,593 L342,585 L342,583 L340,583 L333,575 L325,567 L325,565 L322,564 L322,562 L318,560 L306,548 L304,547 L304,545 L300,543 L288,532 L278,524 L264,513 L245,499 L230,489 L208,475 L187,463 L171,455 L172,452 L196,444 L209,440 L225,434 L240,426 L251,417 L258,409 L264,398 L269,382 L269,364 L266,350 L258,334 L246,317 L234,305 L219,294 L203,286 L192,282 L186,279 L187,273 L191,260 L194,245 L195,239 L195,212 L190,191 L184,178 L175,165 L167,157 L156,149 L143,143 L130,139 L124,138 L105,137 L101,127 L92,112 L82,101 L69,92 L57,87 L45,84 L27,82 L28,72 L28,51 L24,35 L17,21 L10,12 L1,2 Z " fill="#1F98F7" transform="translate(1303,115)"/>
<path d="M0,0 L8,0 L12,2 L12,4 L16,6 L19,11 L19,14 L21,14 L24,21 L28,34 L31,42 L33,49 L33,55 L35,55 L37,64 L41,74 L42,82 L44,82 L46,91 L46,95 L48,95 L50,100 L53,107 L56,114 L61,125 L67,135 L70,140 L73,144 L73,146 L75,146 L75,149 L77,149 L84,158 L84,160 L87,161 L91,166 L91,168 L95,170 L99,172 L98,167 L99,166 L102,149 L104,149 L104,143 L106,140 L107,135 L109,135 L110,128 L115,117 L116,113 L118,112 L122,102 L128,92 L130,88 L132,88 L134,81 L142,71 L143,68 L148,63 L153,57 L155,57 L157,53 L165,46 L167,46 L169,42 L179,35 L181,35 L181,33 L187,31 L190,28 L206,20 L210,18 L218,16 L219,15 L232,15 L238,19 L239,20 L240,28 L240,55 L238,88 L238,122 L240,142 L242,155 L242,163 L248,163 L250,158 L253,153 L256,146 L266,127 L268,125 L271,118 L274,113 L276,113 L277,108 L281,103 L284,98 L286,98 L288,94 L301,82 L311,77 L316,75 L333,75 L348,81 L354,86 L358,91 L360,94 L362,101 L362,114 L359,123 L356,131 L354,138 L353,156 L355,168 L358,173 L360,178 L362,178 L369,186 L375,188 L389,188 L398,185 L411,180 L417,179 L426,179 L435,185 L435,188 L438,189 L441,196 L442,202 L442,211 L440,220 L434,231 L428,239 L425,239 L424,244 L422,244 L422,246 L414,252 L410,256 L397,266 L393,267 L390,270 L379,277 L373,281 L370,281 L370,283 L392,276 L410,270 L424,265 L439,259 L444,259 L444,257 L455,253 L465,248 L475,244 L479,241 L489,237 L499,234 L511,235 L518,238 L525,248 L528,256 L529,263 L529,282 L525,299 L520,310 L517,317 L515,317 L515,322 L508,333 L507,336 L505,336 L503,341 L492,354 L486,361 L484,361 L484,368 L486,369 L537,370 L548,371 L558,373 L570,378 L580,383 L582,387 L586,388 L589,391 L589,393 L592,394 L592,396 L594,396 L600,404 L603,413 L602,418 L600,422 L594,422 L591,425 L585,427 L582,428 L578,427 L573,427 L573,429 L524,430 L513,432 L511,434 L502,436 L494,442 L491,442 L491,440 L488,440 L485,436 L481,434 L481,431 L477,431 L477,428 L473,427 L465,420 L464,418 L459,416 L454,411 L451,408 L451,404 L446,404 L443,401 L438,399 L437,397 L437,390 L442,389 L446,385 L451,383 L462,377 L465,377 L465,374 L451,374 L437,373 L424,370 L405,367 L403,365 L397,363 L397,361 L388,360 L371,354 L370,351 L363,350 L357,347 L350,344 L343,340 L343,337 L337,337 L332,334 L317,326 L317,324 L311,323 L311,321 L306,319 L298,314 L297,310 L298,309 L303,309 L303,307 L317,304 L323,300 L330,299 L331,297 L335,296 L343,296 L344,291 L304,291 L277,290 L276,289 L264,288 L262,287 L249,287 L228,284 L210,282 L196,281 L143,281 L129,282 L115,284 L109,284 L109,286 L83,291 L70,295 L63,297 L58,297 L57,300 L48,303 L39,307 L28,311 L26,311 L26,313 L16,318 L5,324 L3,324 L2,327 L-5,330 L-6,332 L-13,334 L-13,336 L-18,337 L-23,342 L-28,346 L-30,349 L-36,351 L-40,352 L-40,355 L-36,356 L-38,358 L-46,361 L-57,367 L-59,369 L-66,372 L-73,377 L-82,382 L-91,388 L-95,388 L-95,390 L-105,396 L-112,401 L-113,403 L-122,408 L-125,411 L-132,415 L-139,421 L-140,423 L-143,423 L-143,425 L-151,431 L-153,431 L-153,433 L-155,433 L-156,436 L-158,436 L-158,438 L-163,442 L-168,447 L-176,455 L-180,460 L-182,460 L-182,462 L-187,466 L-191,471 L-193,471 L-194,474 L-196,474 L-197,477 L-202,482 L-207,487 L-214,495 L-219,500 L-222,504 L-224,504 L-226,508 L-233,515 L-239,522 L-241,522 L-241,524 L-246,528 L-247,530 L-249,530 L-249,532 L-257,539 L-261,542 L-263,542 L-263,544 L-274,551 L-278,552 L-286,552 L-295,549 L-307,542 L-311,537 L-314,524 L-314,498 L-312,471 L-312,451 L-314,433 L-317,418 L-322,407 L-324,403 L-324,399 L-327,398 L-331,391 L-341,379 L-341,377 L-345,375 L-346,372 L-349,371 L-349,369 L-352,368 L-352,366 L-354,366 L-358,361 L-361,359 L-361,357 L-365,355 L-378,343 L-387,336 L-387,334 L-391,333 L-401,324 L-414,314 L-423,307 L-432,300 L-432,298 L-436,296 L-436,294 L-439,293 L-447,282 L-448,274 L-445,273 L-444,269 L-437,264 L-427,260 L-421,258 L-390,258 L-368,263 L-358,268 L-341,276 L-341,278 L-337,280 L-332,282 L-329,285 L-315,296 L-305,305 L-301,308 L-301,310 L-299,310 L-290,321 L-282,330 L-280,331 L-282,325 L-284,315 L-287,309 L-290,288 L-292,278 L-294,264 L-297,240 L-297,183 L-293,145 L-289,122 L-285,112 L-282,100 L-275,86 L-274,82 L-271,82 L-269,78 L-264,74 L-260,73 L-247,73 L-236,81 L-232,85 L-223,96 L-223,100 L-220,101 L-213,112 L-209,117 L-209,120 L-207,120 L-200,132 L-197,136 L-196,140 L-193,143 L-182,159 L-169,177 L-169,179 L-166,180 L-160,188 L-151,198 L-145,205 L-142,207 L-142,209 L-139,210 L-139,213 L-135,215 L-132,217 L-132,219 L-129,220 L-129,222 L-124,224 L-116,230 L-113,233 L-102,240 L-102,242 L-97,243 L-97,216 L-96,215 L-94,196 L-91,176 L-89,170 L-88,163 L-86,157 L-82,141 L-78,129 L-76,122 L-72,109 L-68,100 L-63,87 L-61,82 L-59,82 L-58,76 L-56,74 L-54,67 L-49,58 L-42,46 L-36,36 L-30,27 L-22,17 L-18,12 L-7,4 L-5,4 L-4,1 Z " fill="#CA2122" transform="translate(914,71)"/>
<path d="M0,0 L10,1 L33,8 L43,11 L59,17 L67,20 L77,24 L108,38 L124,46 L147,59 L167,71 L187,85 L199,94 L202,96 L202,98 L206,99 L220,111 L231,120 L243,132 L248,137 L264,153 L270,160 L270,162 L272,162 L283,176 L293,189 L297,194 L297,196 L293,194 L277,185 L263,178 L250,173 L240,169 L224,165 L215,163 L224,174 L233,184 L243,197 L265,230 L277,250 L280,256 L280,259 L282,259 L290,275 L302,300 L314,329 L321,349 L330,377 L337,403 L342,423 L349,461 L350,470 L351,471 L354,498 L356,519 L358,564 L358,613 L356,612 L352,596 L350,591 L347,579 L337,549 L325,517 L317,497 L310,481 L299,457 L284,427 L278,417 L272,406 L269,400 L255,377 L241,356 L233,345 L228,338 L228,336 L226,336 L220,328 L212,318 L210,317 L218,336 L223,347 L229,364 L236,383 L245,410 L251,433 L253,438 L257,455 L261,474 L263,484 L266,502 L267,504 L267,516 L265,515 L255,491 L246,474 L240,463 L227,441 L217,427 L207,413 L199,403 L199,401 L197,401 L186,387 L180,380 L177,379 L182,389 L186,399 L196,423 L202,440 L210,462 L218,488 L221,500 L227,525 L232,547 L235,566 L238,589 L240,605 L241,622 L241,685 L239,712 L233,748 L227,775 L223,788 L215,812 L210,824 L200,846 L191,863 L176,887 L167,900 L157,913 L151,921 L149,921 L147,926 L139,934 L132,942 L125,949 L124,951 L122,951 L122,953 L112,961 L107,966 L97,975 L86,984 L74,993 L63,1001 L48,1011 L34,1020 L22,1027 L19,1027 L27,1018 L31,1012 L33,1012 L33,1009 L35,1009 L36,1005 L43,995 L52,981 L61,966 L69,950 L80,925 L89,899 L93,882 L94,881 L96,871 L93,871 L91,875 L81,888 L71,899 L64,907 L50,922 L42,930 L40,930 L38,934 L33,939 L24,947 L16,954 L3,965 L1,965 L1,967 L-9,975 L-13,978 L-15,978 L-15,980 L-26,988 L-35,995 L-37,995 L-37,997 L-48,1004 L-51,1005 L-51,1007 L-62,1014 L-77,1024 L-89,1032 L-91,1032 L-91,1034 L-102,1040 L-117,1049 L-130,1057 L-141,1063 L-158,1072 L-170,1078 L-185,1086 L-197,1091 L-213,1099 L-232,1107 L-244,1112 L-252,1116 L-263,1120 L-273,1124 L-300,1134 L-317,1140 L-335,1146 L-350,1151 L-357,1153 L-372,1157 L-381,1160 L-396,1164 L-416,1169 L-414,1165 L-388,1139 L-379,1128 L-371,1118 L-369,1118 L-368,1114 L-360,1104 L-349,1088 L-339,1073 L-329,1057 L-323,1046 L-310,1021 L-302,1005 L-290,978 L-282,958 L-273,932 L-270,925 L-264,904 L-262,899 L-259,886 L-255,872 L-251,852 L-249,852 L-245,866 L-240,889 L-239,899 L-238,900 L-236,927 L-236,941 L-234,941 L-232,936 L-218,910 L-208,891 L-197,867 L-189,850 L-182,833 L-177,821 L-167,796 L-157,769 L-148,742 L-142,721 L-138,708 L-131,681 L-127,663 L-123,648 L-118,622 L-114,602 L-110,574 L-108,555 L-106,544 L-104,524 L-101,483 L-101,390 L-104,341 L-106,327 L-109,305 L-110,303 L-112,286 L-108,290 L-105,294 L-102,301 L-94,319 L-89,329 L-74,365 L-64,394 L-60,404 L-57,416 L-54,425 L-51,435 L-49,444 L-46,453 L-40,478 L-37,491 L-32,517 L-29,534 L-25,561 L-23,579 L-21,605 L-20,631 L-20,685 L-21,712 L-25,753 L-32,797 L-38,825 L-43,846 L-49,866 L-50,873 L-53,881 L-54,884 L-47,881 L-36,873 L-24,864 L-17,859 L-14,856 L-12,856 L-12,854 L-2,846 L0,846 L1,843 L5,839 L7,839 L8,836 L10,836 L11,833 L16,829 L21,823 L25,819 L27,819 L28,816 L30,816 L31,812 L33,812 L34,809 L36,809 L38,805 L47,794 L50,790 L52,790 L53,786 L55,786 L57,782 L60,777 L64,773 L68,767 L75,757 L83,744 L90,733 L97,721 L103,710 L111,694 L119,678 L126,661 L130,651 L136,635 L141,618 L144,610 L149,592 L151,592 L154,599 L159,617 L163,628 L170,662 L171,676 L174,676 L174,667 L175,656 L176,653 L176,643 L177,640 L177,585 L175,555 L170,517 L165,488 L158,452 L149,416 L142,391 L133,362 L128,346 L125,339 L121,326 L117,316 L114,307 L117,306 L125,309 L137,312 L147,317 L152,320 L160,323 L168,329 L180,337 L180,339 L184,341 L187,344 L190,345 L187,336 L181,323 L174,309 L168,297 L162,287 L158,280 L149,266 L147,261 L152,260 L177,263 L186,265 L210,271 L228,278 L236,282 L248,286 L244,275 L236,259 L236,256 L234,256 L230,247 L225,238 L220,229 L212,216 L206,206 L205,203 L202,200 L196,191 L191,184 L191,182 L189,182 L185,176 L178,168 L169,157 L161,148 L161,146 L157,144 L149,136 L142,130 L143,128 L165,126 L183,126 L196,127 L196,124 L194,124 L194,122 L192,122 L188,117 L180,110 L169,100 L165,97 L165,95 L161,94 L156,90 L152,88 L152,84 L147,83 L144,80 L138,77 L134,72 L130,71 L129,69 L125,68 L121,63 L114,59 L114,57 L108,57 L105,54 L101,52 L100,50 L94,47 L85,42 L84,39 L80,40 L72,34 L61,29 L57,26 L45,22 L37,17 L21,10 L13,7 L1,3 Z " fill="#D8D8D6" transform="translate(1348,581)"/>
<path d="M0,0 L19,4 L23,8 L37,13 L43,15 L61,23 L70,28 L81,32 L84,35 L95,40 L103,45 L106,45 L110,49 L116,52 L123,56 L124,58 L130,61 L136,63 L140,67 L145,70 L147,74 L152,75 L152,77 L157,78 L160,81 L160,83 L166,85 L170,89 L174,90 L175,94 L180,97 L187,101 L192,106 L198,111 L198,113 L202,115 L211,123 L211,125 L214,126 L214,128 L216,128 L216,130 L218,130 L218,133 L187,133 L165,135 L169,139 L169,141 L173,143 L181,151 L186,156 L199,171 L207,181 L211,186 L211,188 L213,188 L219,197 L225,206 L225,208 L228,209 L234,221 L240,230 L246,240 L252,252 L255,257 L256,262 L258,262 L265,276 L269,286 L270,292 L264,291 L255,287 L240,281 L225,276 L208,272 L192,269 L170,267 L174,275 L181,286 L187,296 L196,312 L203,328 L206,333 L212,346 L212,351 L208,350 L202,345 L202,343 L198,341 L189,335 L182,330 L173,326 L159,319 L147,316 L139,313 L137,313 L140,322 L146,338 L150,351 L153,359 L158,374 L167,404 L172,422 L182,463 L190,504 L197,553 L199,578 L200,591 L200,646 L199,651 L199,659 L198,662 L196,682 L193,682 L189,658 L183,631 L178,615 L175,605 L173,598 L171,598 L170,605 L165,623 L162,632 L154,655 L150,663 L144,679 L135,699 L129,709 L122,723 L109,746 L102,756 L95,767 L91,773 L84,783 L82,783 L80,788 L77,792 L75,792 L74,796 L72,796 L70,800 L61,811 L55,818 L53,818 L52,822 L47,826 L45,829 L43,829 L42,832 L37,837 L30,843 L25,849 L20,853 L12,860 L10,860 L10,862 L6,863 L5,866 L-11,878 L-21,885 L-28,890 L-32,890 L-30,880 L-29,879 L-27,869 L-21,847 L-14,818 L-9,791 L-4,759 L-2,741 L0,718 L1,691 L1,637 L0,611 L-2,585 L-6,554 L-9,532 L-14,508 L-18,486 L-23,468 L-27,451 L-28,450 L-30,441 L-34,428 L-39,410 L-46,392 L-51,377 L-62,349 L-72,326 L-77,316 L-83,304 L-85,299 L-90,292 L-90,289 L-93,290 L-97,302 L-104,317 L-110,330 L-118,346 L-127,363 L-141,385 L-153,403 L-163,416 L-173,429 L-181,439 L-190,449 L-197,457 L-210,471 L-212,471 L-214,475 L-219,479 L-217,474 L-207,452 L-202,440 L-198,431 L-192,415 L-185,396 L-176,367 L-168,338 L-161,308 L-157,285 L-154,266 L-151,235 L-150,232 L-154,232 L-156,236 L-164,246 L-169,251 L-176,258 L-187,267 L-194,273 L-210,284 L-215,287 L-217,287 L-217,289 L-219,289 L-218,285 L-213,275 L-207,258 L-200,235 L-197,219 L-196,218 L-193,191 L-193,147 L-196,121 L-202,93 L-209,69 L-218,45 L-219,41 L-208,39 L-168,39 L-148,41 L-117,46 L-82,54 L-55,61 L-47,64 L-29,69 L-15,74 L8,82 L21,87 L31,91 L42,95 L39,77 L33,59 L27,44 L19,29 L10,15 L4,7 L4,4 L0,2 Z " fill="#FEFEFE" transform="translate(1326,575)"/>
<path d="M0,0 L5,1 L8,6 L12,21 L14,22 L21,59 L23,85 L23,121 L22,135 L18,157 L15,172 L14,176 L11,176 L11,185 L7,201 L3,211 L2,216 L-2,216 L-2,223 L-6,232 L-10,242 L-11,243 L-12,250 L-16,251 L-17,256 L-23,269 L-25,269 L-27,275 L-29,275 L-30,280 L-33,287 L-36,288 L-40,297 L-42,297 L-42,303 L-45,303 L-47,308 L-51,310 L-52,316 L-56,318 L-58,326 L-61,327 L-67,335 L-70,337 L-72,341 L-77,346 L-78,350 L-69,351 L-44,350 L-42,349 L-29,349 L-29,347 L-20,346 L-16,348 L-19,350 L-21,350 L-22,353 L-29,356 L-30,358 L-37,361 L-49,364 L-51,364 L-51,366 L-56,367 L-83,369 L-85,370 L-85,368 L-93,369 L-110,369 L-114,368 L-113,372 L-112,376 L-111,387 L-110,390 L-110,403 L-108,403 L-107,410 L-106,432 L-107,475 L-111,484 L-117,496 L-119,504 L-123,506 L-123,511 L-125,511 L-126,515 L-129,523 L-132,525 L-134,529 L-139,534 L-143,538 L-145,538 L-146,542 L-150,543 L-151,547 L-161,555 L-164,555 L-165,558 L-174,564 L-180,565 L-180,567 L-188,571 L-199,576 L-204,578 L-210,578 L-211,581 L-231,586 L-232,587 L-244,588 L-254,591 L-259,592 L-271,592 L-271,594 L-284,595 L-317,595 L-332,592 L-344,589 L-351,587 L-353,584 L-361,581 L-361,578 L-366,577 L-366,575 L-370,574 L-375,569 L-376,565 L-380,565 L-384,557 L-387,551 L-390,546 L-390,544 L-393,543 L-394,523 L-392,505 L-390,499 L-389,491 L-387,484 L-383,471 L-380,466 L-378,461 L-376,461 L-375,455 L-369,446 L-365,438 L-363,438 L-361,433 L-359,433 L-357,429 L-350,420 L-349,416 L-352,416 L-354,420 L-360,425 L-361,427 L-363,427 L-365,431 L-368,432 L-370,436 L-378,446 L-383,451 L-386,456 L-393,466 L-395,466 L-398,475 L-404,486 L-407,492 L-411,502 L-414,511 L-416,516 L-419,537 L-420,538 L-421,551 L-421,579 L-425,579 L-426,563 L-461,562 L-477,558 L-483,555 L-483,552 L-490,551 L-493,549 L-493,547 L-497,545 L-501,542 L-503,537 L-510,531 L-513,525 L-515,524 L-516,516 L-518,516 L-517,506 L-515,497 L-510,488 L-504,479 L-500,474 L-498,474 L-496,469 L-485,460 L-483,460 L-482,457 L-480,457 L-478,453 L-475,452 L-474,449 L-472,449 L-472,447 L-469,444 L-467,444 L-466,441 L-464,441 L-462,437 L-458,433 L-456,433 L-454,429 L-447,420 L-445,420 L-444,416 L-433,403 L-432,401 L-430,401 L-429,397 L-427,397 L-426,393 L-424,390 L-422,390 L-421,386 L-418,381 L-416,381 L-415,376 L-409,366 L-404,356 L-401,347 L-399,343 L-396,329 L-396,309 L-403,292 L-409,284 L-416,278 L-416,275 L-420,273 L-425,269 L-430,264 L-430,262 L-432,262 L-435,258 L-435,256 L-431,255 L-406,256 L-393,258 L-386,260 L-376,262 L-366,264 L-358,267 L-349,270 L-335,275 L-321,282 L-317,283 L-316,285 L-299,291 L-290,295 L-272,298 L-260,299 L-243,299 L-238,298 L-231,298 L-231,296 L-218,293 L-212,289 L-205,286 L-194,278 L-186,272 L-179,263 L-177,263 L-177,261 L-174,259 L-169,250 L-160,238 L-158,233 L-156,233 L-155,226 L-151,219 L-150,214 L-145,216 L-137,227 L-129,241 L-124,252 L-121,261 L-121,264 L-118,264 L-119,223 L-123,203 L-125,194 L-126,188 L-128,188 L-130,180 L-134,171 L-137,164 L-137,161 L-139,161 L-142,154 L-147,144 L-147,142 L-150,141 L-153,135 L-158,130 L-162,124 L-163,121 L-165,121 L-165,119 L-167,119 L-175,109 L-180,104 L-188,97 L-188,95 L-191,94 L-196,89 L-201,86 L-205,82 L-210,78 L-214,76 L-214,74 L-218,73 L-225,69 L-225,67 L-231,65 L-231,63 L-191,63 L-191,67 L-178,67 L-161,66 L-137,62 L-130,59 L-122,57 L-118,57 L-118,54 L-120,53 L-115,52 L-114,55 L-106,54 L-105,55 L-106,64 L-91,60 L-84,59 L-76,56 L-66,53 L-63,50 L-57,48 L-48,43 L-44,43 L-43,40 L-37,40 L-37,37 L-35,37 L-35,33 L-29,31 L-24,27 L-17,21 L-8,10 L-7,8 L-4,7 Z " fill="#CB2122" transform="translate(1046,662)"/>
<path d="M0,0 L4,2 L12,17 L15,22 L25,35 L36,49 L48,63 L49,66 L51,66 L55,72 L61,77 L68,85 L73,91 L80,97 L85,102 L95,110 L102,118 L111,125 L121,134 L132,142 L139,148 L143,150 L143,152 L148,154 L158,161 L173,171 L183,178 L194,184 L219,198 L227,202 L240,209 L247,211 L259,217 L272,222 L282,226 L293,230 L306,234 L307,235 L315,235 L416,210 L434,205 L462,198 L507,178 L543,163 L589,144 L611,135 L631,122 L656,106 L678,92 L694,80 L697,80 L682,95 L675,103 L664,114 L657,122 L647,132 L640,140 L629,151 L628,153 L658,142 L705,125 L741,112 L754,108 L794,95 L807,91 L822,86 L828,84 L851,71 L875,57 L892,47 L894,48 L895,47 L908,35 L918,25 L918,28 L908,40 L898,53 L885,69 L874,83 L862,97 L853,108 L841,122 L829,136 L820,146 L813,154 L804,164 L795,174 L786,184 L773,198 L772,196 L761,202 L734,217 L710,231 L682,247 L654,263 L626,279 L600,294 L592,299 L590,298 L598,289 L609,275 L622,259 L633,245 L647,228 L632,236 L609,249 L586,262 L563,275 L540,288 L535,291 L514,297 L494,303 L475,309 L450,316 L428,323 L405,329 L364,336 L355,337 L360,333 L380,321 L406,305 L432,289 L455,275 L438,275 L315,283 L294,283 L224,255 L196,243 L196,244 L209,257 L206,257 L179,230 L172,222 L156,206 L151,201 L144,193 L137,186 L130,178 L117,164 L110,156 L101,146 L94,137 L81,122 L68,107 L59,96 L48,83 L37,69 L23,52 L13,39 L-1,21 L-6,14 L-5,8 Z " fill="#D7D7D5" transform="translate(589,1576)"/>
<path d="M0,0 L3,0 L1,4 L-3,10 L-14,21 L-21,27 L-24,32 L-81,89 L-87,94 L-92,97 L-101,106 L-104,110 L-109,113 L-117,122 L-122,125 L-128,132 L-133,135 L-138,141 L-143,144 L-147,149 L-152,152 L-155,156 L-160,159 L-163,163 L-168,166 L-170,169 L-175,172 L-177,175 L-182,178 L-188,185 L-196,191 L-201,194 L-207,199 L-211,204 L-216,206 L-223,212 L-227,217 L-240,227 L-245,227 L-247,231 L-255,237 L-257,237 L-257,239 L-261,240 L-263,244 L-272,254 L-284,263 L-290,268 L-293,273 L-298,276 L-314,276 L-322,269 L-328,264 L-328,262 L-332,260 L-340,255 L-340,253 L-344,251 L-349,247 L-350,245 L-355,243 L-355,241 L-359,239 L-363,235 L-370,231 L-372,228 L-379,224 L-385,219 L-386,217 L-390,215 L-391,213 L-396,210 L-406,202 L-407,200 L-412,197 L-417,193 L-418,191 L-423,188 L-424,186 L-429,183 L-430,181 L-435,178 L-437,176 L-442,174 L-449,166 L-460,157 L-473,145 L-481,138 L-493,127 L-501,120 L-504,117 L-504,115 L-506,115 L-511,109 L-520,102 L-528,93 L-533,90 L-540,83 L-547,75 L-576,46 L-573,46 L-538,61 L-475,86 L-454,86 L-331,78 L-313,78 L-317,82 L-334,92 L-355,105 L-381,121 L-404,135 L-412,140 L-399,138 L-359,131 L-339,125 L-319,119 L-302,114 L-282,108 L-265,103 L-245,97 L-232,93 L-208,79 L-186,67 L-162,53 L-138,40 L-123,31 L-121,32 L-133,46 L-144,60 L-157,76 L-168,90 L-177,101 L-174,100 L-148,85 L-120,69 L-92,53 L-64,37 L-38,22 L-10,6 Z " fill="#FCFDFD" transform="translate(1358,1772)"/>
<path d="M0,0 L3,0 L7,8 L10,9 L10,13 L12,13 L15,16 L21,27 L21,30 L23,30 L23,35 L26,36 L28,42 L29,47 L32,48 L32,54 L34,54 L35,61 L39,69 L41,78 L44,83 L46,92 L47,106 L49,110 L50,123 L50,163 L49,168 L47,190 L45,190 L45,203 L43,203 L43,209 L41,212 L40,221 L39,222 L37,235 L34,235 L34,243 L30,251 L29,257 L26,257 L26,263 L24,264 L22,273 L19,277 L17,284 L13,293 L11,293 L10,300 L7,300 L6,306 L2,314 L0,314 L-1,319 L-3,324 L-5,324 L-7,328 L-9,333 L-12,333 L-12,338 L-14,338 L-16,343 L-20,347 L-21,352 L-26,355 L-28,361 L-30,361 L-31,365 L-34,365 L-33,371 L-29,372 L-29,368 L-23,367 L-20,364 L-17,364 L-16,361 L-13,361 L-12,358 L-6,355 L-3,354 L-3,352 L1,352 L2,349 L7,345 L10,342 L15,341 L18,336 L22,332 L24,332 L25,329 L29,329 L30,324 L35,319 L45,308 L50,302 L53,302 L54,297 L56,296 L56,302 L51,314 L50,321 L48,321 L48,329 L45,330 L45,337 L41,345 L39,353 L38,354 L36,363 L34,364 L31,374 L29,374 L28,383 L26,383 L25,391 L23,395 L20,395 L20,401 L18,402 L16,409 L13,414 L12,418 L10,418 L10,424 L7,425 L5,432 L0,441 L-2,441 L-3,447 L-6,449 L-7,453 L-9,454 L-11,461 L-14,461 L-15,467 L-17,471 L-20,471 L-21,475 L-30,488 L-33,490 L-36,495 L-39,495 L-40,489 L-43,488 L-43,481 L-45,481 L-49,472 L-50,468 L-54,466 L-54,462 L-57,461 L-57,459 L-59,459 L-66,451 L-67,448 L-70,448 L-75,443 L-78,441 L-78,438 L-84,438 L-84,443 L-82,443 L-78,455 L-75,459 L-73,468 L-70,472 L-66,492 L-65,500 L-64,538 L-66,542 L-68,556 L-73,563 L-80,579 L-84,587 L-87,587 L-87,592 L-91,597 L-96,603 L-97,606 L-102,610 L-106,616 L-108,616 L-108,619 L-113,622 L-116,625 L-123,631 L-124,633 L-128,635 L-131,635 L-133,639 L-137,639 L-137,642 L-142,643 L-143,646 L-151,650 L-155,650 L-157,654 L-161,654 L-162,657 L-169,658 L-175,662 L-186,665 L-191,668 L-199,669 L-200,671 L-206,670 L-206,672 L-225,675 L-232,677 L-284,677 L-285,676 L-302,675 L-311,673 L-317,670 L-325,669 L-331,665 L-338,664 L-347,659 L-347,657 L-353,655 L-365,646 L-366,642 L-371,639 L-371,637 L-374,636 L-375,632 L-377,631 L-378,628 L-381,626 L-384,615 L-386,615 L-389,605 L-391,598 L-393,592 L-393,585 L-390,586 L-385,594 L-383,599 L-380,604 L-380,607 L-376,607 L-373,612 L-373,614 L-369,616 L-366,617 L-365,619 L-361,620 L-360,623 L-352,626 L-351,629 L-344,630 L-332,633 L-316,636 L-271,636 L-271,634 L-259,633 L-247,630 L-244,629 L-232,628 L-224,625 L-211,622 L-210,620 L-203,618 L-192,614 L-182,609 L-180,609 L-180,607 L-173,604 L-165,599 L-164,597 L-159,594 L-153,589 L-151,589 L-150,585 L-146,583 L-145,580 L-141,579 L-139,575 L-134,570 L-131,565 L-129,565 L-128,559 L-125,553 L-123,553 L-123,548 L-119,544 L-117,536 L-112,526 L-108,517 L-107,473 L-108,445 L-110,445 L-111,432 L-113,424 L-113,416 L-115,413 L-114,409 L-108,410 L-85,410 L-83,410 L-56,408 L-51,408 L-51,406 L-35,401 L-30,400 L-29,397 L-22,394 L-19,391 L-17,390 L-26,389 L-29,389 L-29,391 L-42,392 L-44,393 L-72,394 L-78,392 L-77,387 L-72,382 L-69,377 L-64,372 L-61,368 L-58,368 L-58,363 L-52,356 L-51,352 L-46,347 L-45,345 L-42,345 L-42,339 L-40,339 L-39,333 L-36,329 L-33,329 L-32,323 L-29,317 L-27,316 L-25,311 L-23,310 L-18,298 L-16,293 L-13,292 L-12,285 L-8,278 L-5,270 L-3,265 L-2,258 L2,258 L3,250 L8,236 L10,227 L11,218 L14,218 L15,211 L19,190 L21,177 L22,163 L22,127 L20,101 L14,70 L14,64 L11,63 L7,48 L4,43 L0,42 L-2,47 L-4,50 L-7,50 L-9,55 L-17,64 L-24,70 L-26,70 L-27,73 L-30,75 L-35,75 L-35,79 L-37,79 L-37,82 L-43,83 L-44,85 L-54,89 L-58,92 L-65,93 L-66,96 L-79,100 L-84,102 L-98,105 L-106,106 L-106,97 L-114,97 L-115,95 L-118,96 L-118,99 L-132,103 L-137,105 L-161,109 L-186,110 L-191,109 L-191,104 L-177,104 L-177,102 L-164,100 L-156,100 L-155,97 L-145,96 L-145,94 L-137,91 L-127,88 L-125,86 L-119,85 L-118,83 L-114,83 L-114,81 L-111,80 L-110,78 L-105,75 L-101,75 L-100,72 L-96,72 L-94,68 L-86,62 L-82,60 L-79,55 L-76,51 L-73,51 L-74,57 L-79,69 L-83,74 L-85,78 L-87,78 L-87,84 L-91,85 L-91,91 L-84,88 L-77,85 L-76,83 L-71,80 L-70,79 L-65,79 L-64,75 L-60,75 L-59,72 L-48,64 L-39,57 L-36,53 L-33,53 L-31,48 L-29,47 L-28,44 L-26,44 L-26,41 L-22,37 L-21,35 L-19,35 L-18,32 L-16,32 L-16,29 L-11,24 L-6,14 L-4,8 L-2,8 L-2,3 L0,3 Z " fill="#9E2D3A" transform="translate(1046,620)"/>
<path d="M0,0 L56,0 L88,3 L119,8 L137,12 L152,15 L167,19 L188,25 L198,29 L208,32 L217,36 L228,40 L233,43 L241,46 L247,50 L247,52 L237,51 L227,49 L207,47 L176,47 L156,49 L135,53 L128,54 L128,56 L136,56 L153,60 L167,64 L177,68 L182,69 L182,71 L190,72 L195,74 L195,76 L201,77 L213,82 L213,84 L219,86 L226,89 L226,91 L235,94 L235,96 L240,97 L240,99 L245,101 L251,104 L255,108 L260,110 L262,113 L266,115 L267,117 L271,119 L276,124 L280,126 L281,130 L272,129 L257,126 L239,124 L210,123 L175,109 L147,98 L109,83 L89,79 L65,75 L63,74 L18,74 L-4,77 L-36,81 L-28,84 L5,94 L7,96 L-82,97 L-105,99 L-154,119 L-168,125 L-181,136 L-151,135 L-131,135 L-133,137 L-178,153 L-201,166 L-229,181 L-234,184 L-241,192 L-250,202 L-257,210 L-264,218 L-266,218 L-266,220 L-271,222 L-281,227 L-293,232 L-301,236 L-317,241 L-324,244 L-342,249 L-348,249 L-347,246 L-337,239 L-335,239 L-334,236 L-330,232 L-327,228 L-325,228 L-325,225 L-323,225 L-322,220 L-316,210 L-310,195 L-305,179 L-300,168 L-296,161 L-294,161 L-294,158 L-292,158 L-291,154 L-287,149 L-285,149 L-284,145 L-277,138 L-271,131 L-267,129 L-261,122 L-258,122 L-258,120 L-254,116 L-251,116 L-249,112 L-243,107 L-240,107 L-240,105 L-232,99 L-229,99 L-227,95 L-216,88 L-208,82 L-205,82 L-205,80 L-196,74 L-193,72 L-190,72 L-190,70 L-187,70 L-186,67 L-176,61 L-159,50 L-150,45 L-141,39 L-132,34 L-129,32 L-126,32 L-126,30 L-115,23 L-104,17 L-92,10 L-88,10 L-90,24 L-94,34 L-97,43 L-99,43 L-99,47 L-101,47 L-102,53 L-104,53 L-106,59 L-109,63 L-105,60 L-102,55 L-97,51 L-89,44 L-83,39 L-81,39 L-79,35 L-66,26 L-63,26 L-63,24 L-51,17 L-45,14 L-34,9 L-24,5 L-12,2 Z " fill="#FDFDFD" transform="translate(1023,424)"/>
<path d="M0,0 L23,0 L35,2 L48,5 L55,8 L71,14 L81,19 L97,27 L99,28 L99,30 L104,32 L118,41 L134,54 L139,57 L139,59 L143,61 L150,67 L150,69 L154,71 L160,76 L166,83 L171,88 L180,97 L189,108 L193,111 L196,116 L204,126 L212,137 L218,145 L218,147 L193,150 L132,150 L122,149 L112,147 L95,144 L81,141 L72,140 L72,138 L63,138 L42,135 L27,134 L-16,134 L-30,135 L-51,139 L-59,142 L-77,147 L-89,153 L-105,161 L-115,168 L-126,176 L-139,187 L-147,194 L-149,194 L-153,178 L-155,168 L-155,143 L-153,128 L-150,118 L-149,114 L-147,114 L-146,107 L-141,96 L-131,79 L-122,66 L-120,66 L-119,62 L-115,57 L-113,57 L-111,53 L-100,42 L-88,33 L-75,25 L-61,17 L-44,11 L-36,8 L-17,3 L-9,1 Z M10,12 L-2,14 L-17,19 L-18,22 L-16,23 L2,24 L15,24 L22,21 L24,18 L24,13 L23,12 Z " fill="#F6BD16" transform="translate(662,700)"/>
<path d="M0,0 L2,0 L4,21 L6,40 L9,57 L14,83 L21,109 L27,130 L39,161 L46,175 L54,192 L66,212 L70,217 L74,224 L77,228 L80,229 L80,208 L82,188 L84,172 L85,171 L89,151 L92,142 L94,140 L102,174 L111,205 L125,245 L137,274 L148,299 L156,314 L164,330 L181,359 L191,374 L199,386 L212,403 L226,420 L234,430 L239,435 L259,455 L256,456 L229,446 L217,441 L202,434 L181,424 L160,412 L155,409 L146,403 L139,399 L122,387 L112,379 L102,371 L88,359 L83,355 L83,353 L80,352 L80,350 L76,348 L75,345 L73,345 L73,343 L70,342 L70,340 L68,340 L61,332 L52,322 L45,313 L45,311 L42,310 L31,295 L31,293 L29,293 L18,275 L12,266 L5,252 L-3,236 L-8,226 L-18,201 L-24,179 L-24,173 L-30,176 L-38,188 L-43,201 L-45,206 L-47,202 L-50,187 L-52,161 L-52,138 L-49,109 L-45,90 L-40,72 L-31,50 L-23,34 L-15,20 L-5,7 Z " fill="#D7D7D5" transform="translate(632,1293)"/>
<path d="M0,0 L45,0 L53,2 L88,8 L127,23 L154,34 L185,46 L193,50 L193,52 L198,54 L207,59 L218,66 L229,74 L235,78 L235,80 L240,82 L251,91 L264,103 L276,114 L279,117 L280,121 L275,120 L264,114 L248,106 L234,100 L217,94 L206,90 L188,85 L165,80 L147,77 L128,75 L109,74 L92,74 L62,76 L36,80 L22,83 L11,86 L7,86 L8,82 L15,73 L22,67 L24,67 L24,65 L27,65 L27,63 L31,62 L31,60 L42,53 L45,53 L45,51 L10,56 L-14,61 L-29,65 L-49,71 L-69,78 L-81,83 L-95,90 L-110,97 L-112,97 L-112,99 L-123,105 L-139,114 L-147,121 L-153,125 L-166,136 L-176,142 L-178,144 L-181,144 L-181,146 L-193,152 L-209,160 L-222,165 L-232,169 L-257,176 L-273,179 L-293,182 L-305,183 L-331,183 L-331,180 L-321,176 L-306,168 L-295,160 L-285,151 L-280,146 L-278,143 L-280,142 L-271,132 L-262,122 L-255,114 L-250,109 L-221,93 L-197,80 L-185,75 L-151,63 L-169,63 L-200,64 L-195,59 L-186,51 L-165,42 L-123,25 L-100,23 L-13,22 L-56,9 L-54,7 L-6,1 Z " fill="#D6D6D5" transform="translate(1041,497)"/>
<path d="M0,0 L53,0 L80,2 L85,3 L109,6 L119,6 L121,7 L133,8 L134,9 L201,11 L200,16 L188,17 L187,20 L180,21 L174,25 L165,27 L160,27 L160,29 L155,30 L156,34 L168,41 L168,43 L174,44 L177,47 L193,55 L200,57 L201,60 L209,64 L219,68 L227,71 L228,73 L240,77 L245,79 L254,81 L255,83 L261,85 L262,86 L281,89 L294,92 L322,94 L322,97 L308,104 L301,107 L299,110 L294,110 L295,119 L301,121 L303,123 L308,124 L310,129 L316,134 L317,136 L322,138 L327,144 L334,148 L334,151 L338,151 L339,154 L344,157 L345,160 L348,160 L348,162 L354,159 L361,154 L368,153 L370,151 L381,149 L430,149 L430,147 L438,146 L440,147 L443,145 L449,143 L451,141 L456,141 L456,146 L451,148 L450,150 L442,151 L442,153 L434,155 L423,158 L421,160 L410,161 L410,163 L403,165 L398,165 L398,167 L391,168 L391,170 L381,174 L370,183 L367,185 L364,185 L364,188 L362,188 L361,191 L358,191 L358,193 L356,193 L355,197 L353,200 L351,200 L351,204 L348,204 L348,210 L345,210 L344,214 L341,214 L340,212 L335,210 L333,207 L326,206 L315,200 L307,194 L296,187 L288,181 L281,177 L274,173 L269,169 L260,168 L256,163 L243,158 L238,157 L238,154 L233,153 L234,150 L241,149 L241,147 L243,147 L244,144 L249,142 L259,141 L264,145 L264,141 L273,141 L281,143 L281,145 L286,144 L286,139 L284,139 L284,137 L282,137 L279,134 L279,132 L275,130 L265,123 L265,120 L260,119 L259,116 L254,115 L252,113 L247,112 L246,110 L239,107 L239,105 L234,105 L232,102 L227,101 L227,99 L222,98 L210,92 L205,90 L202,88 L190,85 L179,79 L170,77 L170,75 L161,74 L155,71 L148,70 L143,68 L143,66 L130,64 L130,62 L116,60 L107,57 L100,55 L99,54 L90,53 L88,52 L75,50 L55,46 L40,44 L20,42 L-15,41 L-27,43 L-39,44 L-49,46 L-56,48 L-63,50 L-67,52 L-68,54 L-73,56 L-77,55 L-74,51 L-72,51 L-74,46 L-78,45 L-81,46 L-94,47 L-95,48 L-105,50 L-116,52 L-121,54 L-123,53 L-123,55 L-132,56 L-132,58 L-134,59 L-141,59 L-141,61 L-149,62 L-149,64 L-155,66 L-162,70 L-172,74 L-173,75 L-183,75 L-183,72 L-178,69 L-173,68 L-168,63 L-163,59 L-161,56 L-156,56 L-156,54 L-152,52 L-149,52 L-147,48 L-141,46 L-138,43 L-127,37 L-119,33 L-117,33 L-117,31 L-104,26 L-94,21 L-86,19 L-85,17 L-74,15 L-68,12 L-46,7 L-34,6 L-34,4 L-14,1 Z " fill="#9D2C39" transform="translate(1057,351)"/>
<path d="M0,0 L19,0 L38,1 L51,3 L70,5 L90,9 L103,12 L121,14 L125,15 L139,16 L201,16 L199,21 L190,32 L182,40 L180,40 L179,43 L174,47 L168,50 L166,50 L166,52 L153,57 L139,60 L113,60 L97,57 L73,50 L63,46 L46,41 L23,35 L2,31 L-7,29 L-26,27 L-65,27 L-90,30 L-94,29 L-86,23 L-72,15 L-58,10 L-49,7 L-38,4 L-14,1 Z " fill="#F5BC18" transform="translate(662,857)"/>
<path d="M0,0 L7,0 L2,13 L-5,28 L-10,41 L-14,51 L-18,61 L-23,76 L-26,86 L-28,88 L-32,84 L-37,75 L-39,74 L-44,64 L-54,49 L-61,38 L-69,27 L-72,22 L-75,19 L-78,13 L-39,6 Z " fill="#2499F2" transform="translate(805,111)"/>
<path d="M0,0 L3,1 L4,5 L11,10 L11,12 L21,15 L22,18 L37,23 L43,24 L75,25 L78,26 L79,24 L79,42 L83,42 L85,55 L87,63 L82,64 L72,61 L59,57 L53,54 L46,52 L33,45 L22,39 L22,37 L17,35 L5,25 L5,23 L3,23 L3,20 L-1,18 L-2,14 L-4,14 L-6,7 L-1,3 Z " fill="#9D194A" transform="translate(542,1199)"/>
<path d="M0,0 L5,1 L16,11 L21,15 L24,20 L21,25 L18,28 L5,51 L1,62 L-4,70 L-7,71 L-8,76 L-16,89 L-24,102 L-32,115 L-41,129 L-51,145 L-53,146 L-51,140 L-40,116 L-35,105 L-26,82 L-13,45 L-5,18 Z " fill="#2295EC" transform="translate(1684,1285)"/>
<path d="M0,0 L6,0 L6,2 L4,2 L4,11 L3,16 L1,16 L0,21 L-5,31 L-12,40 L-17,46 L-25,52 L-34,57 L-42,60 L-53,61 L-75,61 L-91,60 L-91,58 L-95,58 L-95,56 L-83,50 L-81,50 L-81,48 L-78,48 L-74,52 L-66,55 L-61,56 L-54,56 L-44,53 L-36,48 L-29,38 L-27,32 L-27,17 L-28,12 L-16,6 Z " fill="#F7F7F7" transform="translate(944,617)"/>
<path d="M0,0 L2,1 L-9,12 L-12,17 L-16,21 L-18,21 L-20,25 L-27,32 L-35,39 L-47,50 L-58,59 L-71,71 L-76,76 L-81,81 L-86,83 L-92,86 L-94,85 L-90,81 L-87,81 L-85,77 L-83,75 L-80,75 L-78,71 L-76,69 L-73,69 L-71,65 L-68,62 L-65,62 L-63,58 L-60,55 L-57,55 L-55,51 L-51,47 L-48,47 L-46,43 L-41,38 L-38,38 L-36,34 L-30,28 L-27,27 L-20,19 L-17,16 L-13,14 L-6,6 Z " fill="#48ABF7" transform="translate(1268,1866)"/>
<path d="M0,0 L23,0 L17,8 L5,22 L3,25 L0,25 L-5,7 L-6,1 Z " fill="#2C98EA" transform="translate(1003,93)"/>
<path d="M0,0 L2,0 L1,4 L-9,14 L-16,22 L-40,46 L-48,53 L-70,75 L-78,82 L-88,91 L-88,88 L-72,72 L-64,65 L-12,13 L-9,8 Z " fill="#2B97E2" transform="translate(1347,1789)"/>
<path d="M0,0 L1,3 L-8,13 L-15,21 L-26,33 L-33,41 L-47,56 L-54,64 L-59,69 L-66,76 L-68,73 L-60,65 L-57,60 L-47,51 L-40,43 L-26,28 L-19,20 L-9,9 L-2,1 Z " fill="#279BF4" transform="translate(1416,1715)"/>
<path d="M0,0 L2,0 L1,4 L-10,18 L-23,33 L-32,44 L-44,58 L-57,73 L-61,74 L-59,70 L-49,59 L-40,48 L-28,34 L-14,17 L-5,6 Z " fill="#2B98E8" transform="translate(1476,1642)"/>
<path d="M0,0 L13,0 L14,1 L14,6 L10,10 L5,12 L-8,12 L-25,10 L-26,8 L-14,5 L1,6 L2,4 L5,5 L5,7 L13,5 L13,2 L0,1 Z " fill="#28333C" transform="translate(672,712)"/>
<path d="M0,0 L3,1 L-13,14 L-30,27 L-47,40 L-47,37 L-40,29 L-36,28 L-36,26 L-25,18 L-24,16 L-18,14 L-4,3 Z " fill="#3A97D5" transform="translate(1137,1983)"/>
<path d="M0,0 L3,1 L-12,14 L-22,22 L-36,33 L-43,35 L-38,30 L-34,26 L-29,24 L-23,17 L-18,13 L-12,10 Z " fill="#479DD7" transform="translate(1177,1950)"/>
<path d="M0,0 L21,0 L21,3 L19,3 L19,5 L11,8 L6,8 L6,6 L0,5 L-6,3 L-2,1 Z " fill="#9B1A48" transform="translate(1279,495)"/>
<path d="M0,0 L0,3 L-14,21 L-25,35 L-31,38 L-29,34 L-18,20 L-11,11 Z " fill="#2F8CCC" transform="translate(1523,1585)"/>
<path d="M0,0 L4,2 L7,8 L12,13 L10,17 L5,21 L2,21 L2,15 L4,10 L2,10 L0,5 Z " fill="#A52453" transform="translate(531,1186)"/>
<path d="M0,0 L2,1 L-9,14 L-16,23 L-18,19 L-7,6 L-2,1 Z " fill="#2D94DB" transform="translate(1495,1621)"/>
<path d="M0,0 L4,1 L1,3 L6,3 L6,5 L-10,5 L-20,8 L-9,9 L-9,10 L-21,10 L-23,9 L-22,6 L-7,1 Z " fill="#555347" transform="translate(667,713)"/>
<path d="M0,0 L10,0 L13,2 L12,6 L7,2 L-6,4 L-9,5 L-24,4 L-23,2 Z " fill="#AB3660" transform="translate(1309,491)"/>
<path d="M0,0 L5,0 L7,2 L7,8 L5,10 L0,10 L-2,8 L-2,2 Z " fill="#E1E1E1" transform="translate(876,656)"/>
<path d="M0,0 L12,0 L14,1 L14,4 L9,6 L6,6 L6,4 L-3,4 L-6,2 Z " fill="#152436" transform="translate(671,713)"/>
<path d="M0,0 L2,0 L4,13 L7,17 L8,19 L5,24 L2,20 L0,8 Z " fill="#9F1A49" transform="translate(528,1178)"/>
<path d="M0,0 L2,1 L-4,9 L-11,15 L-13,15 L-14,18 L-16,18 L-14,13 L-10,10 L-8,10 L-8,8 L-6,8 L-4,3 Z " fill="#F4DAAA" transform="translate(858,32)"/>
<path d="M0,0 L26,0 L30,2 L-7,2 L-7,1 Z " fill="#EAD6B7" transform="translate(646,73)"/>
<path d="M0,0 L21,0 L21,2 L0,2 Z " fill="#F7E5D1" transform="translate(906,0)"/>
<path d="M0,0 L22,0 L22,1 L15,2 L0,1 Z " fill="#F7E4C0" transform="translate(1129,14)"/>
<path d="M0,0 L7,2 L11,4 L8,5 L-2,2 Z " fill="#F3DFC3" transform="translate(684,75)"/>
<path d="M0,0 L4,1 L0,4 L-6,4 L-6,2 L-3,1 L0,2 Z " fill="#EDE0CC" transform="translate(871,12)"/>
<path d="M0,0 L4,2 L-1,4 L-5,3 L-4,1 Z M-3,2 Z " fill="#EEE4C7" transform="translate(1110,18)"/>
<path d="M0,0 L7,3 L6,5 L2,3 L-1,1 Z " fill="#F6E4CC" transform="translate(1181,23)"/>
<path d="M0,0 L5,0 L4,3 L0,2 Z " fill="#F7FEDD" transform="translate(1042,45)"/>
<path d="M0,0 L3,1 L3,3 L-1,4 L-2,1 Z M0,2 Z " fill="#EFDBCA" transform="translate(860,18)"/>
<path d="M0,0 L6,2 L4,3 L3,5 L2,3 L-1,1 Z " fill="#F9EAD1" transform="translate(966,13)"/>
<path d="M0,0 L4,1 L-1,5 L-3,4 Z " fill="#F5E5CA" transform="translate(596,93)"/>
<path d="M0,0 L3,1 L2,4 L-2,3 Z M0,2 Z " fill="#EEE9D1" transform="translate(843,31)"/>
<path d="M0,0 L4,2 L-1,4 L-2,1 Z " fill="#F7E8CC" transform="translate(877,8)"/>
<path d="M0,0 L3,2 L2,6 L0,3 Z " fill="#FBE6D1" transform="translate(996,44)"/>
<path d="M0,0 L1,4 L-2,4 Z " fill="#EDE5CF" transform="translate(832,44)"/>
<path d="M0,0 L7,1 L3,3 L0,2 Z " fill="#F9ECD1" transform="translate(895,1)"/>
<path d="M0,0 L2,2 L-1,2 L-1,4 L-3,4 L-2,1 Z " fill="#F5E9D0" transform="translate(1049,48)"/>
<path d="M0,0 L3,0 L3,3 L0,3 Z " fill="#FAFFDE" transform="translate(1215,45)"/>
<path d="M0,0 L7,0 L7,1 L0,2 Z " fill="#F6E0C7" transform="translate(1121,16)"/>
<path d="M0,0 L1,2 L-2,3 L-5,1 Z " fill="#FAE8CB" transform="translate(619,80)"/>
<path d="M0,0 L5,0 L3,2 L0,2 Z " fill="#F3E9C3" transform="translate(622,78)"/>
<path d="M0,0 L3,0 L2,3 L0,3 Z " fill="#F9FCE1" transform="translate(1056,35)"/>
<path d="M0,0 L2,0 L2,3 L-1,3 Z " fill="#EBF3E3" transform="translate(835,31)"/>
<path d="M0,0 L0,3 L-5,2 L-5,1 Z " fill="#F9E8CE" transform="translate(940,1)"/>
<path d="M0,0 L3,1 L1,3 L-1,1 Z " fill="#FCEFD3" transform="translate(590,98)"/>
<path d="M0,0 L2,3 L-2,2 Z " fill="#F2E6BF" transform="translate(703,82)"/>
<path d="M0,0 L2,0 L0,4 L-1,2 Z " fill="#F7E2CD" transform="translate(1206,41)"/>
<path d="M0,0 L3,1 L2,3 L0,3 Z " fill="#F5ECD3" transform="translate(833,41)"/>
<path d="M0,0 L3,2 L2,4 L0,3 Z " fill="#FAEED6" transform="translate(993,39)"/>
<path d="M0,0 L3,1 L3,3 L0,2 Z " fill="#F5E0C1" transform="translate(846,28)"/>
<path d="M0,0 L2,2 L-2,2 Z " fill="#FDEACF" transform="translate(978,21)"/>
<path d="M0,0 L3,0 L3,2 L-1,1 Z " fill="#FAF1D1" transform="translate(855,21)"/>
<path d="M0,0 L3,1 L0,3 Z " fill="#FCF1D8" transform="translate(586,102)"/>
<path d="M0,0 L3,1 L1,3 Z " fill="#F7EFD4" transform="translate(838,36)"/>
<path d="M0,0 L5,0 L3,2 Z " fill="#F6E8CE" transform="translate(1071,34)"/>
<path d="M0,0 L3,1 L1,3 Z " fill="#FBECCD" transform="translate(1076,31)"/>
<path d="M0,0 L2,0 L1,3 L-1,1 Z " fill="#FDECD4" transform="translate(985,28)"/>
<path d="M0,0 L2,0 L2,3 L0,3 Z " fill="#E2E2E2" transform="translate(1875,16)"/>
<path d="M0,0 L5,0 L4,2 Z " fill="#F7E3C7" transform="translate(1153,16)"/>
<path d="M0,0 L3,1 L-1,2 Z " fill="#EDE0C5" transform="translate(951,6)"/>
<path d="M0,0 L3,0 L3,2 L0,2 Z " fill="#F5F6E4" transform="translate(868,5)"/>
<path d="M0,0 L4,1 L1,2 Z " fill="#F8E6CA" transform="translate(630,76)"/>
<path d="M0,0 L3,1 L0,2 Z " fill="#F3E6CE" transform="translate(828,48)"/>
<path d="M0,0 L3,1 L0,2 Z " fill="#F1EACC" transform="translate(1067,37)"/>
<path d="M0,0 L3,1 L0,2 Z " fill="#F2E0CB" transform="translate(1196,33)"/>
<path d="M0,0 L2,0 L1,3 Z " fill="#FBEBD6" transform="translate(848,26)"/>
<path d="M0,0 L5,0 L5,1 L0,1 Z " fill="#F7EED7" transform="translate(1159,17)"/>
<path d="M0,0 L0,3 Z " fill="#F9ECCF" transform="translate(604,88)"/>
<path d="M0,0 L1,2 L-2,1 Z " fill="#FAE9CF" transform="translate(609,85)"/>
<path d="M0,0 L4,1 Z " fill="#FCF0D2" transform="translate(698,81)"/>
<path d="M0,0 L2,0 L2,2 L0,2 Z " fill="#F9E4D7" transform="translate(816,65)"/>
<path d="M0,0 L1,4 Z " fill="#FDECD6" transform="translate(822,56)"/>
<path d="M0,0 L2,2 L-1,1 Z " fill="#F7EBD5" transform="translate(1215,53)"/>
<path d="M0,0 L2,0 L2,2 L0,2 Z " fill="#FAEDD8" transform="translate(1211,48)"/>
<path d="M0,0 L3,2 L0,2 Z " fill="#FAECCD" transform="translate(1070,35)"/>
<path d="M0,0 L2,1 L1,3 Z " fill="#F8EFCE" transform="translate(987,32)"/>
<path d="M0,0 L4,1 Z " fill="#FAEED1" transform="translate(1083,29)"/>
<path d="M0,0 L2,2 L0,3 Z " fill="#F9F3D2" transform="translate(1092,24)"/>
<path d="M0,0 L2,2 L-1,1 Z " fill="#FAECD5" transform="translate(980,23)"/>
<path d="M0,0 L3,1 L0,2 Z " fill="#F8E6D1" transform="translate(1101,22)"/>
<path d="M0,0 L0,3 Z " fill="#F7E4D3" transform="translate(864,16)"/>
<path d="M0,0 L2,1 L0,3 Z " fill="#FAE5C9" transform="translate(959,9)"/>
<path d="M0,0 L2,0 L2,2 L0,2 Z " fill="#EEDDC2" transform="translate(882,6)"/>
<path d="M0,0 L2,1 L0,2 Z " fill="#F6EBD2" transform="translate(589,101)"/>
<path d="M0,0 L3,1 Z " fill="#FBECD6" transform="translate(600,91)"/>
<path d="M0,0 L3,1 Z " fill="#F8CB53" transform="translate(676,75)"/>
<path d="M0,0 L2,1 L0,2 Z " fill="#FCF0D5" transform="translate(819,61)"/>
<path d="M0,0 L2,1 L0,2 Z " fill="#FBEDD2" transform="translate(824,54)"/>
<path d="M0,0 L2,0 L1,2 Z " fill="#F8EECD" transform="translate(1212,51)"/>
<path d="M0,0 Z " fill="#F7E8CA" transform="translate(1209,45)"/>
<path d="M0,0 L3,1 Z " fill="#F9ECCE" transform="translate(1056,44)"/>
<path d="M0,0 L2,2 L0,2 Z " fill="#F9E9CF" transform="translate(1062,40)"/>
<path d="M0,0 L2,1 L0,2 Z " fill="#F8EBD4" transform="translate(837,39)"/>
<path d="M0,0 L2,1 L0,2 Z " fill="#FAEACD" transform="translate(1194,32)"/>
<path d="M0,0 L2,0 L1,2 Z " fill="#FBDDC4" transform="translate(1189,28)"/>
<path d="M0,0 L2,2 L0,2 Z " fill="#FAECD4" transform="translate(1089,26)"/>
<path d="M0,0 Z " fill="#FFF2DA" transform="translate(983,26)"/>
<path d="M0,0 L3,1 Z " fill="#F9E2C6" transform="translate(1097,24)"/>
<path d="M0,0 L3,1 Z " fill="#F8EBCD" transform="translate(1167,19)"/>
<path d="M0,0 L2,0 L1,2 Z " fill="#F7F1D0" transform="translate(973,19)"/>
<path d="M0,0 L2,1 L0,2 Z " fill="#F2DFC8" transform="translate(956,8)"/>
<path d="M0,0 L3,1 Z " fill="#EEE6CD" transform="translate(942,4)"/>
<path d="M0,0 L2,1 Z " fill="#F3E2CA" transform="translate(606,88)"/>
<path d="M0,0 L2,1 Z " fill="#EBDAB8" transform="translate(695,80)"/>
<path d="M0,0 L2,1 Z " fill="#FCEBCF" transform="translate(814,68)"/>
<path d="M0,0 Z " fill="#FAEBD6" transform="translate(1216,56)"/>
<path d="M0,0 L2,1 Z " fill="#F3D890" transform="translate(826,53)"/>
<path d="M0,0 Z " fill="#EFDFC3" transform="translate(999,51)"/>
<path d="M0,0 Z " fill="#F6ECD5" transform="translate(1052,46)"/>
<path d="M0,0 L2,1 Z " fill="#F8E8CF" transform="translate(1054,46)"/>
<path d="M0,0 Z " fill="#E3DABC" transform="translate(994,43)"/>
<path d="M0,0 Z " fill="#FAEBCB" transform="translate(1065,38)"/>
<path d="M0,0 L2,1 Z " fill="#EFDCC4" transform="translate(990,38)"/>
<path d="M0,0 L2,1 Z " fill="#FAE3C9" transform="translate(1198,36)"/>
<path d="M0,0 L2,1 Z " fill="#F7E6CC" transform="translate(851,26)"/>
<path d="M0,0 L2,1 Z " fill="#FCEACF" transform="translate(1173,21)"/>
<path d="M0,0 L2,1 Z " fill="#F4E0C3" transform="translate(1171,19)"/>
<path d="M0,0 L2,1 Z " fill="#F8E0C5" transform="translate(866,16)"/>
<path d="M0,0 L2,1 Z " fill="#F7E4CB" transform="translate(886,6)"/>
<path d="M0,0 Z " fill="#F5EFDF" transform="translate(585,106)"/>
<path d="M0,0 Z " fill="#F9E8BE" transform="translate(621,80)"/>
<path d="M0,0 Z " fill="#F5E3B1" transform="translate(636,75)"/>
<path d="M0,0 Z " fill="#FFFFFF" transform="translate(1347,67)"/>
<path d="M0,0 Z " fill="#FBE5CB" transform="translate(821,60)"/>
<path d="M0,0 Z " fill="#FAF5E7" transform="translate(825,52)"/>
<path d="M0,0 Z " fill="#F0E5C7" transform="translate(1059,43)"/>
<path d="M0,0 Z " fill="#FCEED1" transform="translate(1060,42)"/>
<path d="M0,0 Z " fill="#F6E1CB" transform="translate(1204,41)"/>
<path d="M0,0 Z " fill="#F6E6CE" transform="translate(836,41)"/>
<path d="M0,0 Z " fill="#FAE8D4" transform="translate(1202,39)"/>
<path d="M0,0 Z " fill="#FAE5D2" transform="translate(1201,38)"/>
<path d="M0,0 Z " fill="#EFDEC0" transform="translate(989,36)"/>
<path d="M0,0 Z " fill="#FBCC4F" transform="translate(869,31)"/>
<path d="M0,0 Z " fill="#FCE9BF" transform="translate(868,30)"/>
<path d="M0,0 Z " fill="#F5E8CE" transform="translate(981,26)"/>
<path d="M0,0 Z " fill="#FBF6E4" transform="translate(982,25)"/>
<path d="M0,0 Z " fill="#FFF4E4" transform="translate(850,25)"/>
<path d="M0,0 Z " fill="#E6D4B4" transform="translate(1178,24)"/>
<path d="M0,0 Z " fill="#EFDEC4" transform="translate(853,24)"/>
<path d="M0,0 Z " fill="#F6E8D7" transform="translate(1119,17)"/>
<path d="M0,0 Z " fill="#FDF0DF" transform="translate(1120,15)"/>
<path d="M0,0 Z " fill="#E9DDCA" transform="translate(963,13)"/>
<path d="M0,0 Z " fill="#EEE3C0" transform="translate(962,12)"/>
</svg>
